<svg width="96" height="96" viewBox="0 0 96 96" fill="none" xmlns="http://www.w3.org/2000/svg">
<mask id="mask0" mask-type="alpha" maskUnits="userSpaceOnUse" x="-1" y="-1" width="97" height="97">
<circle cx="47.9995" cy="47.9996" r="48" fill="white"/>
</mask>
<g mask="url(#mask0)">
<circle cx="48" cy="47.8356" r="48" fill="url(#paint0_linear)"/>
<path d="M56.5098 56.6414L49.4575 39.5088C49.4 39.3555 49.3808 39.183 49.3808 39.0297C49.3617 38.6847 49.4958 38.3398 49.7258 38.0715C49.9749 37.8224 50.3199 37.6882 50.6648 37.7074C50.9331 37.7074 51.1823 37.8032 51.3931 37.9565C51.623 38.129 51.7955 38.3398 51.8913 38.6081L58.5987 55.3766L65.3061 38.6081C65.4211 38.3589 65.5936 38.129 65.8044 37.9565C66.0152 37.8032 66.2643 37.7265 66.5326 37.7074C66.8776 37.6882 67.2225 37.8224 67.4716 38.0715C67.7016 38.3398 67.8358 38.6847 67.8166 39.0297C67.8166 39.2022 67.7783 39.3555 67.7208 39.5088L60.6493 56.6414C60.2468 57.5229 59.6527 57.9637 58.8862 57.9637H58.2729C57.5064 57.9637 56.9123 57.5229 56.5098 56.6414ZM70.8253 57.4463C70.5762 57.1971 70.4421 56.8714 70.4612 56.5264V39.1638C70.4612 38.8189 70.5954 38.4739 70.8253 38.2248C71.0553 37.9757 71.4003 37.8224 71.7452 37.8415H83.2244C83.5502 37.8415 83.876 37.9565 84.0868 38.2056C84.3168 38.4356 84.4509 38.7422 84.4509 39.068C84.4509 39.3938 84.336 39.7004 84.0868 39.9112C83.8569 40.1412 83.5502 40.2562 83.2244 40.2562H73.0675V46.5803H82.1896C82.5154 46.5803 82.8412 46.7144 83.052 46.9444C83.2819 47.1744 83.4161 47.481 83.4161 47.8068C83.4161 48.1326 83.2819 48.4392 83.052 48.65C82.822 48.88 82.5154 48.995 82.1896 48.995H73.0675V55.3574H83.2244C83.5502 55.3382 83.876 55.4724 84.0868 55.7215C84.3168 55.9515 84.4509 56.2581 84.4509 56.5839C84.4509 56.9097 84.336 57.2163 84.0868 57.4271C83.8569 57.6571 83.5502 57.7721 83.2244 57.7721H71.7452C71.4003 57.8487 71.0745 57.6954 70.8253 57.4463ZM51.0481 56.1623L43.9958 39.0297C43.5933 38.1481 42.9992 37.7074 42.2135 37.7074H41.5811C40.7954 37.7074 40.2013 38.1481 39.818 39.0297L36.7518 46.4845H34.4138C33.7239 46.4845 33.1489 47.0594 33.1489 47.7493V47.7685C33.1489 48.4584 33.7239 49.0333 34.4138 49.0333H35.6594L32.7273 56.1431C32.6698 56.2964 32.6507 56.4689 32.6315 56.6222C32.6123 56.9672 32.7465 57.3121 32.9765 57.5804C33.2256 57.8296 33.5705 57.9637 33.9155 57.9445C34.1838 57.9445 34.4329 57.8487 34.6437 57.6954C34.8737 57.5229 35.0462 57.3121 35.142 57.0438L38.3615 49.0141H40.5846C41.2745 49.0141 41.8494 48.4392 41.8494 47.7493V47.711C41.8494 47.0211 41.2745 46.4462 40.5846 46.4462H39.3964L41.8877 40.2753L48.5951 57.0438C48.7101 57.293 48.8826 57.5229 49.0934 57.6762C49.3042 57.8296 49.5533 57.9062 49.8216 57.9254C50.1666 57.9445 50.5115 57.8104 50.7606 57.5613C50.9906 57.293 51.1248 56.948 51.1056 56.6031C51.1439 56.4689 51.1056 56.3156 51.0481 56.1623ZM29.9486 56.1623L22.877 39.0297C22.4938 38.1481 21.8997 37.7074 21.114 37.7074H20.4815C19.6958 37.7074 19.1017 38.1481 18.7185 39.0297L15.6522 46.4845H13.3142C12.6243 46.4845 12.0494 47.0594 12.0494 47.7493V47.7685C12.0494 48.4584 12.6243 49.0333 13.3142 49.0333H14.5599L11.6469 56.1623C11.5895 56.3156 11.5511 56.4881 11.5511 56.6414C11.532 56.9863 11.6661 57.3313 11.8961 57.5996C12.1452 57.8487 12.4902 57.9829 12.8351 57.9637C13.1034 57.9637 13.3525 57.8679 13.5633 57.7146C13.7933 57.5421 13.9658 57.3313 14.0616 57.0822L17.3003 49.0525H19.5425C20.2516 49.0525 20.8073 48.4775 20.8073 47.7685V47.7301C20.8073 47.0402 20.2324 46.4653 19.5425 46.4653H18.3543L20.8265 40.2945L27.5339 57.063C27.6489 57.3121 27.8214 57.5421 28.0322 57.6954C28.243 57.8487 28.4921 57.9445 28.7604 57.9445C29.1053 57.9637 29.4503 57.8296 29.6994 57.5804C29.9294 57.3121 30.0635 56.9672 30.0444 56.6222C30.0444 56.4689 30.006 56.3156 29.9486 56.1623Z" fill="white"/>
</g>
<defs>
<linearGradient id="paint0_linear" x1="-3.43826" y1="91.6451" x2="98.97" y2="21.4622" gradientUnits="userSpaceOnUse">
<stop stop-color="#30BAC6"/>
<stop offset="1" stop-color="#B6509E"/>
</linearGradient>
</defs>
</svg>
