<svg width="96" height="96" viewBox="0 0 96 96" fill="none" xmlns="http://www.w3.org/2000/svg">
<circle cx="48" cy="48" r="48" fill="white"/>
<path fill-rule="evenodd" clip-rule="evenodd" d="M47.6048 12C49.3104 12 50.9262 12.5027 52.4522 13.2926L75.3605 26.3985C76.826 27.2149 78.0475 28.4071 78.8995 29.8522C79.7514 31.2974 80.203 32.9434 80.2078 34.621V60.7249C80.2078 64.1361 78.3587 67.2779 75.3605 68.9655L52.4522 81.9636C50.9846 82.8287 49.3083 83.2757 47.6048 83.2562C45.9014 83.2757 44.2251 82.8287 42.7575 81.9636L19.8313 68.9655C18.3604 68.146 17.1354 66.9483 16.2831 65.4962C15.4309 64.0442 14.9823 62.3907 14.9839 60.707V34.621C14.9839 31.2099 16.8331 28.0681 19.8313 26.3805L42.7575 13.2926C44.2476 12.395 45.8634 12 47.6048 12ZM47.6048 15.07C46.4558 15.07 45.3427 15.3932 44.3733 15.9677L21.3393 28.9658C20.3505 29.5467 19.5275 30.3718 18.9491 31.362C18.3707 32.3522 18.0562 33.4744 18.0359 34.621V60.6172C18.0359 63.005 19.3465 65.0876 21.3573 66.2725L44.2835 79.2706C45.2972 79.8517 46.4453 80.1574 47.6138 80.1574C48.7823 80.1574 49.9304 79.8517 50.9441 79.2706L73.8704 66.3982C74.8658 65.8217 75.696 64.9985 76.2809 64.008C76.8658 63.0175 77.1856 61.893 77.2096 60.7429V34.621C77.2096 32.2512 75.8991 30.1507 73.8704 28.9658L50.9262 15.9677C49.9161 15.3843 48.7712 15.0749 47.6048 15.07V15.07ZM47.6048 23.7055C48.5025 23.7055 49.4002 23.903 50.226 24.4954L66.6891 33.8311C68.3049 34.7287 69.3102 36.4163 69.3102 38.3014V56.9548C69.3102 58.7501 68.3049 60.5275 66.6891 61.4251L50.226 70.7608C49.4181 71.2455 48.5025 71.443 47.6048 71.443C46.6892 71.443 45.7736 71.2455 44.9657 70.7428L28.5206 61.4072C27.7208 60.9711 27.0535 60.3273 26.5891 59.5437C26.1246 58.7601 25.8801 57.8657 25.8815 56.9548V38.1937C25.8815 36.3984 26.9048 34.621 28.5206 33.7234L44.9657 24.3877C45.7736 23.903 46.6892 23.7055 47.6048 23.7055ZM47.6048 26.2907C47.1919 26.2907 46.6892 26.3805 46.2943 26.6857L29.9209 36.0214C29.113 36.5061 28.6104 37.4038 28.6104 38.3014V57.0445C28.6104 58.0499 29.113 58.8399 29.9209 59.3426L46.384 68.6603C46.7969 68.9655 47.1919 69.0552 47.6946 69.0552C48.1973 69.0552 48.5923 68.8757 49.0052 68.6603L65.4683 59.3246C66.2762 58.8399 66.7609 57.9781 66.7788 57.0445V38.2835C66.7788 37.296 66.2762 36.5061 65.4683 36.0034L48.9154 26.6857C48.5368 26.4075 48.0741 26.2681 47.6048 26.2907V26.2907ZM47.6048 35.411C48.1075 35.411 48.5025 35.5187 48.9154 35.8239L57.3893 40.5815C58.1972 41.0662 58.682 41.928 58.6999 42.8615V52.4844C58.6999 53.4719 58.1972 54.2798 57.3893 54.7645L48.9154 59.54C48.5025 59.8273 48.1075 59.935 47.6048 59.935C47.1919 59.935 46.6892 59.7375 46.2763 59.54L37.8024 54.7645C37.4107 54.5244 37.0855 54.1898 36.8565 53.7915C36.6275 53.3932 36.5021 52.9438 36.4918 52.4844V42.8795C36.4918 41.8921 36.9945 41.0842 37.8024 40.5994L46.2763 35.8418C46.6892 35.5366 47.0842 35.4469 47.6048 35.4469V35.411ZM47.6946 37.7987H47.4971L39.0232 42.5563L38.9155 52.3947L47.4971 57.3498L56.1865 52.5922L56.2762 42.7538L47.6946 37.7987Z" fill="url(#paint0_linear)"/>
<defs>
<linearGradient id="paint0_linear" x1="14.9839" y1="47.6284" x2="80.2078" y2="47.6284" gradientUnits="userSpaceOnUse">
<stop stop-color="#D93CEF"/>
<stop offset="1" stop-color="#544CF2"/>
</linearGradient>
</defs>
</svg>
