<svg width="260" height="260" viewBox="0 0 260 260" fill="none" xmlns="http://www.w3.org/2000/svg">
<g clip-path="url(#clip0)">
<path d="M130.397 258.862C201.566 258.862 259.259 201.169 259.259 130C259.259 58.8313 201.566 1.13779 130.397 1.13779C59.2287 1.13779 1.53516 58.8313 1.53516 130C1.53516 201.169 59.2287 258.862 130.397 258.862Z" fill="black"/>
<path d="M92.2788 173.096H154.861C170.506 173.096 183.307 160.295 183.307 144.65C183.307 129.004 170.506 116.203 154.861 116.203H154.576H105.933C96.9724 116.203 89.1497 111.51 84.8827 104.398C86.4473 101.838 88.4385 99.7046 90.8565 97.8555C95.2657 94.442 100.528 92.7352 106.075 92.7352H168.657C176.907 92.7352 183.449 86.0503 183.449 77.9431C183.449 69.8358 176.765 63.1509 168.657 63.1509H106.075C90.4298 63.1509 77.6289 75.9518 77.6289 91.5973C77.6289 107.243 90.4298 120.044 106.075 120.044H154.719H155.003C168.657 120.044 179.751 131.138 179.751 144.792C179.751 148.063 179.04 151.193 177.902 154.179C172.498 146.783 164.106 142.516 154.861 142.516H154.576H105.933C92.2788 142.516 81.1847 131.422 81.1847 117.768H77.6289C77.6289 133.414 90.4298 146.214 106.075 146.214H154.719H155.003C163.679 146.214 171.502 150.624 176.053 158.02C171.644 165.131 163.821 169.825 155.003 169.825H92.421C84.1716 169.825 77.6289 176.51 77.6289 184.617C77.6289 192.866 84.3138 199.409 92.421 199.409H155.003C170.649 199.409 183.449 186.608 183.449 170.963H179.894C179.894 184.617 168.8 195.711 155.145 195.711H92.5633C86.3051 195.711 81.3269 190.733 81.3269 184.475C81.0425 178.074 86.1628 173.096 92.2788 173.096ZM81.0425 91.4551C81.0425 77.8008 92.1366 66.7067 105.791 66.7067H168.373C174.631 66.7067 179.609 71.6849 179.609 77.9431C179.609 84.2013 174.631 89.1794 168.373 89.1794H105.791C99.3904 89.1794 93.4167 91.1706 88.4385 95.1531C86.3051 96.8599 84.456 98.7089 82.8915 100.985C81.7536 97.8555 81.0425 94.7264 81.0425 91.4551Z" fill="white"/>
</g>
<circle cx="130" cy="130" r="130" fill="white"/>
<path d="M37.4033 122.372C37.4033 120.607 37.416 118.83 37.416 117.065C37.5557 116.647 37.3906 116.202 37.5176 115.783C37.5303 115.491 37.5303 115.199 37.543 114.907C37.6826 114.615 37.5303 114.298 37.6445 114.006C37.6572 113.803 37.6572 113.587 37.6699 113.384C37.7969 113.181 37.6699 112.939 37.7715 112.736C38.0381 109.575 38.6855 106.503 39.7139 103.507C40.7041 100.612 42.1006 97.9463 44.0938 95.5977C44.8428 94.7217 45.668 93.9219 46.5566 93.1729C47.7627 91.9415 49.2734 91.1543 50.835 90.4942C53.5518 89.3516 56.3955 88.8438 59.3535 88.7803C64.8252 88.6661 70.0049 89.9229 75.0703 91.8272C80.4912 93.8711 85.5947 96.5499 90.4316 99.7364C90.5586 99.8125 90.6729 99.9141 90.8252 99.9522C91.0029 99.8379 90.9014 99.6856 90.8633 99.5586C89.9238 95.2803 89.2383 90.9639 88.8066 86.5967C88.5781 84.2862 88.4639 81.9629 88.3496 79.6397C88.248 77.6846 88.3115 75.7549 88.4004 73.8125C88.6797 67.8584 89.6572 62.0313 92.3994 56.6485C95.7383 50.0977 101.058 46.1876 108.269 44.8292C111.239 44.2706 114.235 44.1563 117.231 44.2579C118.806 44.3086 120.393 44.3721 121.967 44.6006C122.957 44.6641 123.922 44.8545 124.899 45.0196C127.4 45.4766 129.838 46.1495 132.187 47.1524C136.884 49.1583 140.578 52.3194 143.257 56.6739C145.25 59.8985 146.456 63.4278 147.256 67.1094C147.446 67.9727 147.751 68.8233 147.764 69.712C147.789 70.2325 147.878 70.7403 147.979 71.2354C148.297 73.6729 148.487 76.1231 148.563 78.586C148.614 80.4395 148.729 82.293 148.563 84.1338C148.551 84.2481 148.487 84.4131 148.652 84.4512C148.805 84.4893 148.906 84.3243 149.021 84.2481C149.808 83.7022 150.544 83.0801 151.344 82.5469C157.412 78.294 164.064 75.3614 171.288 73.7237C175.173 72.8477 179.121 72.543 183.069 72.7969C190.242 73.2666 196.653 75.7676 202.138 80.4903C205.451 83.3467 208.104 86.7618 210.263 90.5577C211.71 93.0967 213.03 95.6993 213.779 98.543C214.097 99.7491 214.338 100.968 214.566 102.199C214.579 103.253 214.655 104.307 214.655 105.36C214.668 108.356 214.046 111.238 213.018 114.031C211.481 118.195 209.069 121.814 206.149 125.114C203.166 128.491 199.713 131.335 196.019 133.887C195.447 134.28 195.447 134.28 195.98 134.699C196.463 135.08 196.933 135.461 197.415 135.842C197.605 135.981 197.771 136.147 197.821 136.388C201.554 139.562 204.867 143.104 207.597 147.166C210.631 151.686 212.802 156.573 213.843 161.931C213.97 162.604 214.147 163.276 214.3 163.949C214.236 164.571 214.452 165.155 214.516 165.765C214.719 167.707 214.668 169.637 214.541 171.579C214.236 176.48 212.878 181.101 210.91 185.569C209.412 188.972 207.673 192.234 205.197 195.04C202.734 197.846 199.814 200.042 196.374 201.515C193.606 202.695 190.725 203.356 187.729 203.609C183.729 203.939 179.794 203.508 175.896 202.619C171.123 201.527 166.604 199.75 162.274 197.49C157.399 194.951 152.88 191.866 148.665 188.337C146.431 186.458 144.311 184.452 142.317 182.319C138.852 178.625 135.779 174.613 133.304 170.17C131.933 167.707 130.688 165.193 129.851 162.489C129.787 162.273 129.686 162.058 129.711 161.816C129.927 161.423 130.346 161.423 130.701 161.334C133.608 160.547 136.274 159.227 138.699 157.449C141.276 155.583 143.384 153.26 145.098 150.581C145.237 150.353 145.339 150.073 145.644 149.997C146.456 150.099 147.167 150.505 147.903 150.797C152.537 152.701 157.095 154.796 161.551 157.094C166.159 159.468 170.653 162.045 174.995 164.876C178.423 167.11 181.762 169.446 184.936 172.011C186.726 173.458 188.478 174.956 190.179 176.518C191.677 177.889 193.137 179.298 194.495 180.809C194.774 181.113 195.028 180.999 195.231 180.745C195.536 180.377 195.562 179.92 195.473 179.476C195.333 178.701 195.092 177.952 194.825 177.216C194.724 176.949 194.533 176.759 194.317 176.581C190.344 173.458 186.281 170.449 182.155 167.529C177.331 164.127 172.38 160.928 167.276 157.944C162.186 154.961 156.942 152.257 151.534 149.87C150.163 149.261 148.767 148.702 147.383 148.131C147.053 147.991 146.761 147.839 146.824 147.407C147.332 145.947 147.891 144.513 148.271 143.015C149.274 138.939 149.211 134.864 148.284 130.776C148.246 130.472 148.183 130.18 148.043 129.913C147.764 128.872 147.649 127.793 147.357 126.765C147.027 125.584 146.634 124.429 146.151 123.299C146.075 123.108 145.961 122.918 145.961 122.702C146.456 121.687 147.243 120.874 147.929 119.985C150.417 116.773 153.159 113.777 156.13 110.997C160.027 107.366 164.255 104.18 168.965 101.653C173.573 99.1778 178.423 97.4385 183.564 96.5372C186.929 95.9405 190.331 95.9151 193.746 95.9786C194.076 95.9913 194.419 96.0293 194.597 96.1055C192.235 95.6358 189.747 95.1534 187.183 95.001C183.45 94.7725 179.807 95.2295 176.201 96.1817C172.773 97.0958 169.536 98.4922 166.451 100.257C162.985 102.25 159.799 104.599 156.841 107.277C152.778 110.972 149.084 114.996 145.783 119.389C145.504 119.757 145.313 120.201 144.856 120.404C144.526 120.354 144.45 120.062 144.311 119.833C142.292 116.672 139.728 114.057 136.566 112.038C133.291 109.943 129.724 108.699 125.839 108.331C125.001 108.255 124.15 108.23 123.312 108.217C123.046 108.217 122.754 108.268 122.563 108.001C122.233 106.871 122.31 105.69 122.259 104.535C122.17 102.44 122.018 100.358 121.941 98.2637C121.878 96.4737 121.738 94.6836 121.624 92.8936C121.497 90.9512 121.37 89.0088 121.192 87.0792C120.57 80.3252 119.682 73.6221 117.358 67.1983C116.673 65.294 115.543 62.6661 113.588 59.8985C114.413 63.1993 115.226 66.462 115.962 69.7374C117.574 77.0118 118.945 84.3243 119.872 91.7256C120.291 95.1026 120.646 98.4795 120.824 101.882C120.913 103.672 121.078 105.462 121.053 107.265C121.053 107.544 121.078 107.811 120.977 108.077C120.773 108.42 120.405 108.407 120.075 108.445C115.391 109.106 111.265 110.997 107.659 114.044C105.298 116.037 103.368 118.398 101.87 121.115C101.769 121.293 101.692 121.509 101.464 121.572C101.058 121.534 100.931 121.191 100.74 120.925C99.0898 118.576 97.541 116.151 96.1191 113.65C95.1162 111.911 94.2275 110.108 93.3262 108.318C93.0723 107.823 92.8818 107.315 92.7041 106.795C92.5898 106.351 92.4375 105.919 92.3486 105.475C92.3359 105.513 92.3613 105.538 92.374 105.576C92.4883 106.021 92.6025 106.478 92.7549 106.922C93.8848 111.581 96.3984 115.58 98.7852 119.643C99.4453 120.773 100.22 121.839 100.867 122.969C100.664 123.921 100.169 124.772 99.9023 125.711C99.585 126.854 99.293 127.996 99.0898 129.151C99.0518 129.393 99.0391 129.659 98.7852 129.812C98.4424 129.862 98.1758 129.659 97.8965 129.52C94.2402 127.755 90.5713 126.016 86.7881 124.53C82.4082 122.804 77.9395 121.382 73.2549 120.747C66.666 119.858 60.3057 120.531 54.3008 123.578C53.0693 124.2 52.3838 125.33 51.7744 126.498C51.6602 126.714 51.6221 126.981 51.6094 127.234C51.5967 127.59 51.5205 128.022 51.8633 128.237C52.1807 128.44 52.4346 128.072 52.7012 127.92C56.5479 125.647 60.6611 124.226 65.1299 123.857C69.1035 123.54 73.0264 123.883 76.9111 124.746C82.2432 125.939 87.3086 127.907 92.2725 130.116C94.1641 130.954 96.0557 131.805 97.9092 132.744C98.1504 132.871 98.417 132.96 98.5947 133.189C98.7852 133.988 98.7979 134.801 98.8867 135.613C99.0518 137.086 99.4834 138.482 99.877 139.904C99.8389 141.161 100.296 142.304 100.689 143.459C101.934 147.077 103.889 150.289 106.402 153.171C108.637 155.723 111.201 157.906 114.21 159.519C114.413 159.633 114.642 159.709 114.743 159.95C114.807 160.23 114.629 160.433 114.502 160.648C111.709 165.143 108.992 169.675 106.148 174.131C104.041 177.432 101.832 180.656 99.458 183.779C97.9727 185.734 96.373 187.588 94.71 189.391C92.666 191.612 90.4063 193.555 87.9307 195.294C87.7402 195.434 87.5498 195.561 87.2324 195.7C88.0449 195.789 88.7432 195.675 89.4287 195.535C91.8662 195.065 93.8975 193.796 95.751 192.196C99.4199 189.01 102.111 185.036 104.688 180.974C108.256 175.35 111.366 169.446 114.73 163.695C115.2 162.896 115.67 162.096 116.178 161.309C116.305 161.105 116.406 160.852 116.698 160.788C117.028 160.775 117.32 160.902 117.612 161.017C119.732 161.804 121.954 162.147 124.188 162.185C125.661 162.21 127.134 162.07 128.594 161.778C128.86 161.728 129.127 161.651 129.406 161.689C129.698 161.791 129.698 162.083 129.762 162.312C130.65 165.523 131.806 168.621 133.329 171.592C135.348 175.502 137.798 179.12 140.616 182.484C141.048 183.005 141.479 183.525 141.937 184.021C142.343 184.452 142.394 184.871 142.178 185.404C141.556 186.979 140.883 188.54 140.108 190.038C138.42 193.314 136.478 196.437 134.256 199.382C132.072 202.276 129.66 204.968 127.02 207.443C123.427 210.795 119.479 213.651 115.061 215.822C111.328 217.65 107.393 218.869 103.241 219.275C98.6836 219.72 94.2656 219.098 89.9873 217.46C85.4805 215.746 81.5449 213.131 77.9648 209.919C75.3242 207.545 72.9375 204.968 71.1094 201.896C70.0811 200.169 69.1924 198.366 68.6719 196.411C68.6465 196.31 68.5957 196.221 68.5068 196.157C68.2402 194.875 67.9736 193.606 67.6816 192.323C67.4658 191.371 67.3643 190.406 67.3008 189.429C67.1865 189.137 67.3389 188.819 67.1992 188.527C67.1992 187.106 67.1992 185.684 67.1992 184.262C67.3389 183.97 67.1865 183.652 67.3008 183.36C67.3135 183.157 67.3135 182.941 67.3262 182.738C67.4531 182.535 67.3262 182.294 67.4277 182.091C67.8594 178.028 68.9131 174.131 70.4111 170.348C71.1475 168.469 71.9346 166.603 72.8867 164.813C73.0391 164.229 73.3564 163.733 73.6104 163.2C73.7627 162.896 73.9912 162.591 73.4453 162.439C73.3564 162.413 73.3691 162.299 73.4453 162.235C74.1055 162.159 74.4736 161.753 74.7656 161.194C75.1338 160.496 75.6035 159.849 75.9463 159.15C75.7686 158.998 75.6035 159.011 75.4639 159.036C74.0039 159.303 72.5566 159.074 71.1094 159.011C64.5586 158.757 58.2871 157.424 52.5615 154.06C47.9658 151.356 44.4746 147.585 41.999 142.862C40.958 140.882 40.0566 138.825 39.4473 136.654C39.3965 136.489 39.333 136.337 39.2314 136.197C38.9902 135.474 38.8125 134.725 38.7617 133.95C38.5586 132.922 38.3555 131.906 38.165 130.878C38.127 130.688 38.0127 130.484 38.1016 130.281C37.6191 128.974 37.5811 127.59 37.4287 126.231C37.3018 125.102 37.3018 123.959 37.2383 122.816C37.2637 122.728 37.2637 122.537 37.4033 122.372Z" fill="#E98296"/>
<path d="M214.453 102.326C213.971 100.193 213.59 98.0352 212.739 95.9913C211.013 91.878 208.778 88.0694 205.909 84.6417C202.888 81.0235 199.295 78.1417 195.042 76.0977C191.881 74.587 188.542 73.6729 185.063 73.2159C182.639 72.8985 180.214 72.8731 177.789 73.0255C173.193 73.3047 168.75 74.3712 164.434 75.9454C160.155 77.5069 156.118 79.5762 152.322 82.1026C152.005 82.3184 151.7 82.5215 151.383 82.7374C151.167 82.5596 151.154 82.293 151.078 82.0518C150.507 80.2872 149.948 78.5098 148.958 76.9229C148.895 76.8213 148.844 76.6944 148.717 76.6436C148.488 76.3262 148.564 75.9708 148.603 75.6153C148.806 75.171 148.869 74.7647 148.412 74.4346C148.158 73.3428 148.12 72.2129 147.879 71.1212C147.828 70.626 147.701 70.1436 147.6 69.6485C147.308 67.8585 146.889 66.0938 146.394 64.3545C145.289 60.546 143.651 57.004 141.087 53.9317C138.51 50.8213 135.311 48.5743 131.578 47.0889C129.496 46.2637 127.363 45.629 125.142 45.2735C125.078 45.2608 125.027 45.21 124.977 45.1846C123.986 44.9561 122.996 44.6895 121.955 44.7784C119.353 44.5372 116.737 44.3467 114.122 44.4356C109.844 44.5626 105.68 45.1846 101.82 47.1905C98.1387 49.1075 95.3203 51.9131 93.2383 55.4805C91.0293 59.3018 89.8486 63.4532 89.1758 67.7823C88.7822 70.3467 88.6426 72.9366 88.5029 75.5264C88.4014 77.5831 88.5029 79.627 88.5918 81.6583C88.7314 84.8321 89.0742 87.9932 89.5312 91.1544C89.9756 94.2139 90.5342 97.2608 91.1816 100.32C90.915 100.358 90.7754 100.168 90.623 100.066C86.0527 97.0196 81.2285 94.4678 76.1377 92.4112C72.4941 90.9385 68.7236 89.8087 64.8262 89.2628C60.0908 88.6153 55.3936 88.7169 50.8867 90.6212C49.4775 91.2178 48.1699 91.9795 46.9512 92.919C46.8242 93.0206 46.71 93.1729 46.5195 93.1602C47.002 92.0049 47.9541 91.2686 48.8809 90.5323C49.6045 89.961 50.3789 89.4659 51.1152 88.8946C51.7881 88.3741 52.5879 88.3106 53.3623 88.1583C55 87.8282 56.6631 87.5743 58.3262 87.4473C58.5674 87.295 58.8594 87.4854 59.0879 87.3204C59.4688 87.3204 59.8496 87.3204 60.2305 87.3077C61.7539 87.2188 63.2773 87.2188 64.8008 87.3077C65.1816 87.3077 65.5625 87.3077 65.9434 87.3077C66.1338 87.46 66.3877 87.295 66.5781 87.4219C69.1553 87.6504 71.6816 88.1075 74.1953 88.7549C76.0107 89.2247 77.7881 89.796 79.54 90.4561C79.9971 90.6212 80.1367 90.6719 80.1113 89.9991C80.0859 88.9327 80.1494 87.8536 80.1621 86.7872C80.3271 86.5079 80.124 86.1778 80.2764 85.8985C80.2764 85.5557 80.2764 85.2256 80.2764 84.8829C80.4287 84.6924 80.2637 84.4385 80.3906 84.2481C80.5049 81.6456 80.9873 79.0938 81.5332 76.5547C82.1045 73.9014 82.8662 71.3116 83.8057 68.7598C83.8818 68.544 83.9834 68.3282 84.0723 68.1251C84.834 66.335 85.583 64.545 86.4717 62.8184C88.2236 59.4415 90.293 56.2676 92.7812 53.3731C95.6631 50.0215 98.9512 47.1524 102.785 44.9434C106.454 42.9122 110.313 41.5157 114.452 40.8682C116.585 40.5381 118.718 40.3096 120.863 40.3858C123.999 40.5128 127.135 40.7794 130.144 41.7061C132.188 42.3409 134.066 43.3819 135.933 44.4102C137.228 45.1212 138.497 45.8829 139.716 46.7208C142.026 48.3458 144.223 50.0977 146.279 52.0528C149.009 54.6426 151.396 57.5245 153.541 60.5967C155.344 63.1739 156.905 65.9034 158.314 68.709C158.505 69.0772 158.632 69.1788 159.063 69.001C161.907 67.8077 164.878 67.0206 167.925 66.5508C168.382 66.4747 168.839 66.4493 169.309 66.3985C169.499 66.2588 169.753 66.4239 169.943 66.2715C170.197 66.2715 170.451 66.2715 170.705 66.2715C171.035 66.1192 171.403 66.3223 171.721 66.1446C173.244 66.1446 174.768 66.1446 176.278 66.1446C176.558 66.3096 176.888 66.1065 177.167 66.2588C177.421 66.2588 177.675 66.2588 177.929 66.2588C178.119 66.4112 178.373 66.2462 178.563 66.3858C181.204 66.6778 183.794 67.1729 186.346 67.8712C190.434 68.9883 194.344 70.5626 198.076 72.543C201.732 74.4854 205.173 76.7452 208.436 79.2969C211.279 81.5313 213.895 84.0196 216.357 86.6475C218.998 89.4659 221.321 92.5381 223.365 95.8262C224.368 97.4385 225.295 99.1016 226.146 100.79C226.831 102.148 226.831 102.161 225.523 102.999C223.276 104.446 221.017 105.894 218.782 107.366C218.414 107.607 218.198 107.582 217.944 107.265C216.954 106.033 215.964 104.815 214.961 103.596C214.821 103.532 214.656 103.494 214.567 103.355C214.517 103.012 214.39 102.682 214.453 102.326Z" fill="#EEDBDF"/>
<path d="M68.5449 196.246C68.8496 196.132 68.7861 196.424 68.8242 196.538C69.7129 199.128 70.9189 201.553 72.5186 203.787C74.0801 205.971 75.9209 207.913 77.9268 209.716C80.0342 211.62 82.2686 213.334 84.6934 214.794C88.1211 216.863 91.8027 218.298 95.7637 218.958C97.5029 219.25 99.2803 219.428 101.045 219.352C105.146 219.199 109.081 218.311 112.877 216.736C116.647 215.162 120.088 213.042 123.287 210.554C125.89 208.522 128.264 206.25 130.485 203.813C132.948 201.108 135.157 198.214 137.125 195.129C139.093 192.044 140.756 188.794 142.102 185.392C142.279 184.96 142.229 184.655 141.898 184.262C138.966 180.948 136.363 177.406 134.192 173.547C132.123 169.865 130.523 165.993 129.559 161.88C129.635 161.791 129.724 161.791 129.812 161.855C130.104 163.137 130.638 164.33 131.158 165.536C132.923 169.624 135.233 173.407 137.938 176.937C139.118 178.473 140.362 179.958 141.657 181.405C142.978 182.865 144.349 184.274 145.783 185.607C149.528 189.111 153.591 192.234 157.971 194.926C159.938 196.132 161.944 197.262 164.014 198.252C168.457 200.397 173.078 202.048 177.928 202.962C180.873 203.521 183.869 203.787 186.865 203.609C192.083 203.292 196.945 201.819 201.173 198.646C204.131 196.424 206.479 193.656 208.308 190.444C210.161 187.207 211.659 183.817 212.751 180.25C213.449 177.952 213.944 175.616 214.236 173.217C214.49 171.109 214.49 169.002 214.452 166.895C214.439 166.184 214.312 165.473 214.236 164.762C214.211 164.508 214.147 164.254 214.287 164.025C214.655 165.65 214.909 167.314 215.112 168.964C215.214 169.218 215.087 169.497 215.201 169.751C215.214 170.17 215.227 170.576 215.239 170.995C215.303 171.884 215.303 172.76 215.239 173.648C215.227 174.067 215.214 174.474 215.201 174.893C215.074 175.147 215.214 175.426 215.112 175.68C214.566 180.796 213.119 185.658 210.897 190.305C209.209 193.834 207.216 197.16 204.385 199.928C201.109 203.114 197.275 205.234 192.832 206.288C191.499 206.606 190.166 206.796 188.808 206.948C188.554 207.05 188.274 206.91 188.021 207.037C187.563 207.05 187.106 207.063 186.649 207.063C186.065 207.126 185.469 207.126 184.885 207.063C184.428 207.05 183.971 207.037 183.514 207.024C183.26 206.897 182.98 207.037 182.727 206.936C178.829 206.682 175.097 205.742 171.415 204.485C168.267 203.419 165.232 202.061 162.3 200.499C158.758 198.607 155.394 196.411 152.207 193.961C150.404 192.577 148.665 191.105 146.989 189.556C145.999 188.642 145.047 187.689 144.082 186.737C143.688 186.356 143.587 186.471 143.435 186.928C141.276 193.415 137.811 199.166 133.558 204.473C131.729 206.745 129.762 208.891 127.616 210.871C124.582 213.677 121.294 216.152 117.676 218.171C113.74 220.355 109.589 221.878 105.133 222.487C100.334 223.147 95.6748 222.564 91.1045 220.951C87.1436 219.555 83.6523 217.371 80.4277 214.731C79.0313 213.588 77.6855 212.395 76.4287 211.087C74.1943 208.776 72.3281 206.225 70.9063 203.33C69.8145 201.083 69.0527 198.709 68.5449 196.246Z" fill="#A87A92"/>
<path d="M39.4219 136.21C39.8409 137.353 40.2344 138.508 40.6914 139.638C42.0244 142.951 43.8145 145.985 46.2139 148.664C49.9971 152.904 54.7198 155.57 60.1026 157.183C62.4639 157.894 64.8887 158.351 67.3262 158.655C68.5957 158.82 69.878 158.985 71.1602 158.935C72.1758 158.897 73.1787 159.125 74.1944 159.049C74.8799 158.998 75.5655 158.884 76.3653 158.973C75.6924 160.077 75.0703 161.144 74.4102 162.185C74.1944 162.527 73.7754 162.299 73.458 162.375C72.6201 162.718 71.7442 162.565 70.9063 162.515C68.9766 162.388 67.0469 162.172 65.1426 161.829C64.1651 161.651 63.2383 161.359 62.2862 161.067C59.417 160.357 56.6748 159.277 54.085 157.856C52.5235 157.005 51.0889 155.989 49.7178 154.859C48.0674 153.742 46.7979 152.232 45.6045 150.683C42.8242 147.103 41.0088 143.065 39.8409 138.711C39.6758 138.114 39.5235 137.53 39.3965 136.921C39.333 136.692 39.2188 136.439 39.4219 136.21Z" fill="#A87A92"/>
<path d="M214.454 102.326C214.543 102.656 214.644 102.999 214.733 103.329C214.911 103.482 214.733 103.71 214.86 103.862C214.962 104.535 215.05 105.195 215.152 105.868C215.254 106.084 215.127 106.325 215.241 106.528C215.254 106.858 215.266 107.189 215.279 107.519C215.342 108.23 215.342 108.953 215.279 109.664C215.266 109.994 215.254 110.324 215.241 110.654C215.127 110.857 215.241 111.099 215.152 111.315C214.682 114.78 213.629 118.056 211.978 121.141C210.544 123.819 208.766 126.257 206.748 128.542C204.094 131.538 201.06 134.103 197.836 136.451C197.061 135.829 196.312 135.194 195.512 134.61C195.17 134.357 195.271 134.255 195.525 134.077C197.264 132.935 198.94 131.69 200.552 130.357C202.431 128.783 204.209 127.12 205.846 125.279C207.548 123.375 209.096 121.357 210.417 119.16C212.359 115.91 213.717 112.444 214.263 108.661C214.543 106.706 214.619 104.764 214.39 102.809C214.352 102.656 214.314 102.479 214.454 102.326Z" fill="#A87A92"/>
<path d="M39.4226 136.21C39.7146 138.076 40.2732 139.866 40.8953 141.631C42.1521 145.16 43.8914 148.436 46.2908 151.317C47.1414 152.346 48.03 153.323 49.0583 154.187C49.2996 154.39 49.5789 154.555 49.7058 154.859C48.8552 154.656 48.2458 154.047 47.5603 153.577C45.2624 152.016 43.1169 150.251 41.1746 148.271C38.407 145.452 36.0457 142.291 34.2302 138.736C33.9763 138.254 33.7605 137.759 33.4939 137.276C33.3162 136.972 33.3669 136.756 33.6208 136.502C34.3699 135.766 35.3728 135.524 36.2869 135.093C37.1121 134.687 37.9499 134.331 38.8259 134.052C39.2068 134.712 39.1179 135.524 39.4226 136.21Z" fill="#EEDBDF"/>
<path d="M62.2871 161.08C63.4805 161.296 64.6738 161.524 65.8672 161.74C68.3809 162.185 70.9072 162.388 73.459 162.388C73.6621 162.565 73.9541 162.388 74.2207 162.591C73.7256 163.327 73.4717 164.178 72.9385 164.889C72.5195 164.546 71.9863 164.47 71.4912 164.317C68.457 163.391 65.4609 162.362 62.4902 161.22C62.4141 161.194 62.3506 161.131 62.2871 161.08Z" fill="#EEDBDF"/>
<path d="M37.4045 122.372C37.5823 125.051 37.7473 127.717 38.1536 130.37C37.5188 129.393 37.4045 128.263 37.1633 127.158C37.0364 126.587 36.9983 126.003 37.0237 125.406C36.9348 124.683 36.9348 123.972 37.0237 123.248C37.1506 122.969 36.719 122.436 37.4045 122.372Z" fill="#EEDBDF"/>
<path d="M64.8125 87.3331C63.2891 87.3331 61.7656 87.3331 60.2422 87.3331C60.3818 87.1553 60.585 87.2188 60.7754 87.2188C61.9434 87.2188 63.1113 87.2188 64.292 87.2188C64.4697 87.2188 64.6729 87.168 64.8125 87.3331Z" fill="#FDFDFD"/>
<path d="M215.266 173.661C215.266 172.773 215.266 171.897 215.266 171.008C215.443 171.884 215.443 172.773 215.266 173.661Z" fill="#FDFDFD"/>
<path d="M215.266 109.677C215.266 108.966 215.266 108.242 215.266 107.531C215.443 108.255 215.443 108.966 215.266 109.677Z" fill="#FDFDFD"/>
<path d="M37.01 123.273C37.01 123.997 37.01 124.708 37.01 125.432C36.8196 124.708 36.8196 123.984 37.01 123.273Z" fill="#FDFDFD"/>
<path d="M184.91 207.075C185.494 207.075 186.091 207.075 186.675 207.075C186.091 207.24 185.507 207.24 184.91 207.075Z" fill="#FDFDFD"/>
<path d="M37.5054 115.783C37.4927 116.215 37.5815 116.659 37.4038 117.065C37.4419 116.647 37.2895 116.202 37.5054 115.783Z" fill="#FDFDFD"/>
<path d="M171.707 66.1446C171.39 66.3858 171.034 66.2208 170.691 66.2715C171.009 66.0176 171.364 66.1954 171.707 66.1446Z" fill="#FDFDFD"/>
<path d="M37.6329 114.006C37.6329 114.311 37.6964 114.628 37.5314 114.907C37.5695 114.603 37.4298 114.285 37.6329 114.006Z" fill="#FDFDFD"/>
<path d="M80.3011 85.9493C80.263 86.2413 80.4153 86.5714 80.1868 86.838C80.2249 86.546 80.0726 86.2159 80.3011 85.9493Z" fill="#FDFDFD"/>
<path d="M177.166 66.2715C176.874 66.2335 176.544 66.3858 176.277 66.1573C176.569 66.1954 176.887 66.0303 177.166 66.2715Z" fill="#FDFDFD"/>
<path d="M67.3404 183.449C67.3404 183.754 67.4166 184.071 67.2388 184.351C67.2642 184.046 67.1373 183.729 67.3404 183.449Z" fill="#FDFDFD"/>
<path d="M67.2384 188.616C67.4035 188.908 67.34 189.213 67.34 189.518C67.1369 189.238 67.2765 188.921 67.2384 188.616Z" fill="#FDFDFD"/>
<path d="M59.1133 87.3457C58.8848 87.5616 58.6055 87.4346 58.3516 87.4727C58.5801 87.2442 58.8594 87.3838 59.1133 87.3457Z" fill="#FDFDFD"/>
<path d="M215.24 169.764C215.1 169.51 215.138 169.243 215.151 168.977C215.342 169.218 215.215 169.497 215.24 169.764Z" fill="#FDFDFD"/>
<path d="M215.139 175.692C215.127 175.426 215.089 175.147 215.228 174.905C215.216 175.159 215.343 175.439 215.139 175.692Z" fill="#FDFDFD"/>
<path d="M182.752 206.948C183.019 206.936 183.285 206.898 183.539 207.037C183.272 207.025 182.993 207.139 182.752 206.948Z" fill="#FDFDFD"/>
<path d="M188.047 207.037C188.301 206.898 188.567 206.936 188.834 206.948C188.593 207.139 188.313 207.025 188.047 207.037Z" fill="#FDFDFD"/>
<path d="M215.138 111.327C215.125 111.099 215.1 110.87 215.227 110.667C215.227 110.896 215.328 111.124 215.138 111.327Z" fill="#FDFDFD"/>
<path d="M215.24 106.541C215.1 106.338 215.138 106.109 215.151 105.881C215.329 106.084 215.227 106.325 215.24 106.541Z" fill="#FDFDFD"/>
<path d="M214.859 103.875C214.72 103.723 214.745 103.52 214.732 103.342C214.859 103.38 214.948 103.469 214.986 103.596C214.872 103.659 214.872 103.761 214.859 103.875Z" fill="#FDFDFD"/>
<path d="M66.5898 87.46C66.374 87.4346 66.1328 87.5362 65.9551 87.3458C66.1709 87.3712 66.4121 87.2569 66.5898 87.46Z" fill="#FDFDFD"/>
<path d="M80.4285 84.2989C80.4031 84.5147 80.5046 84.7559 80.3142 84.9337C80.3396 84.7178 80.2253 84.4766 80.4285 84.2989Z" fill="#FDFDFD"/>
<path d="M178.562 66.3985C178.347 66.3731 178.105 66.4747 177.928 66.2715C178.131 66.2969 178.372 66.1827 178.562 66.3985Z" fill="#FDFDFD"/>
<path d="M169.93 66.2715C169.752 66.4747 169.511 66.3731 169.295 66.3985C169.473 66.1827 169.714 66.2969 169.93 66.2715Z" fill="#FDFDFD"/>
<path d="M67.4663 182.18C67.479 182.408 67.5171 182.624 67.3647 182.827C67.3901 182.611 67.2758 182.37 67.4663 182.18Z" fill="#FDFDFD"/>
<path d="M37.7603 112.736C37.7729 112.965 37.811 113.181 37.6587 113.384C37.6841 113.168 37.5825 112.927 37.7603 112.736Z" fill="#FDFDFD"/>
<path d="M146.088 122.753C147.091 125 147.84 127.311 148.132 129.761C148.145 129.837 148.195 129.913 148.221 130.002C148.322 130.281 148.284 130.599 148.386 130.878C148.957 134.458 148.449 137.949 147.408 141.377C146.418 144.652 144.793 147.623 142.571 150.226C138.331 155.189 132.999 158.173 126.486 158.998C120.469 159.76 115.111 158.097 110.3 154.542C106.225 151.533 103.102 147.725 100.88 143.192C100.41 142.228 99.915 141.275 99.8262 140.171C99.0391 137.949 98.6201 135.664 98.582 133.315C98.5312 133.252 98.4551 133.176 98.4551 133.1C98.4932 132.021 98.3916 130.916 98.8359 129.888C99.1279 128.58 99.3438 127.26 99.7373 125.978C100.042 124.975 100.436 123.997 100.842 123.032C100.854 122.474 101.159 122.055 101.489 121.636C102.353 120.214 103.203 118.792 104.257 117.484C106.809 114.323 109.932 111.911 113.639 110.248C115.962 109.207 118.412 108.598 120.926 108.28C121.497 108.039 122.081 107.849 122.69 108.153C125.471 108.115 128.2 108.445 130.854 109.283C134.002 110.273 136.808 111.848 139.347 113.955C141.581 115.809 143.371 118.03 144.907 120.481C145.517 121.128 145.923 121.877 146.088 122.753Z" fill="#FDEBAB"/>
<path d="M99.8262 140.158C101.058 143.764 102.987 146.976 105.476 149.845C108.472 153.311 112.001 156.053 116.317 157.665C122.284 159.887 128.2 159.404 133.85 156.7C141.86 152.866 146.558 146.404 148.106 137.657C148.5 135.423 148.513 133.163 148.322 130.903C148.284 130.776 148.335 130.738 148.449 130.776C148.881 132.643 149.16 134.547 149.198 136.464C149.274 140.361 148.487 144.081 146.926 147.648C146.71 148.601 146.291 149.451 145.644 150.175C144.856 151.267 144.146 152.409 143.282 153.45C140.007 157.36 135.944 160.052 131.057 161.486C130.638 161.613 130.206 161.74 129.787 161.855C129.698 161.867 129.622 161.867 129.533 161.88C127.743 162.286 125.915 162.489 124.1 162.451C121.764 162.413 119.466 162.007 117.257 161.169C117.041 161.093 116.813 161.029 116.597 160.966C115.86 160.89 115.264 160.509 114.692 160.077C113.144 159.227 111.646 158.287 110.262 157.17C107.202 154.707 104.701 151.774 102.746 148.372C101.375 145.998 100.372 143.484 99.7881 140.806C99.75 140.59 99.6485 140.374 99.8262 140.158Z" fill="#967849"/>
<path d="M98.8493 129.862C98.7604 131.005 98.6843 132.148 98.5954 133.29C97.4528 132.757 96.2975 132.236 95.155 131.69C90.7624 129.621 86.2936 127.742 81.6598 126.27C78.8288 125.381 75.947 124.695 73.0016 124.289C70.653 123.959 68.279 123.883 65.9304 124.048C62.363 124.289 58.9099 125.127 55.6599 126.689C54.5046 127.247 53.362 127.844 52.2829 128.542C51.9147 128.783 51.7624 128.694 51.6354 128.326C51.3434 127.463 51.5466 126.676 51.9655 125.901C52.9431 124.086 54.6188 123.223 56.447 122.512C59.0241 121.496 61.6901 120.785 64.445 120.493C66.6921 120.252 68.9391 120.277 71.1989 120.455C76.3278 120.849 81.1901 122.309 85.9763 124.111C89.3151 125.368 92.5651 126.841 95.777 128.39C96.7927 128.885 97.821 129.38 98.8493 129.862Z" fill="#D16B7F"/>
<path d="M145.67 150.162C146.102 149.324 146.521 148.474 146.952 147.636C146.965 147.864 147.104 147.953 147.295 148.029C151.929 149.807 156.397 151.965 160.803 154.25C164.408 156.129 167.937 158.173 171.391 160.318C174.044 161.956 176.672 163.645 179.249 165.409C183.058 168.012 186.79 170.716 190.484 173.483C191.83 174.499 193.15 175.54 194.483 176.568C194.775 176.797 194.979 177.064 195.08 177.419C195.321 178.27 195.664 179.095 195.702 179.983C195.715 180.339 195.601 180.656 195.41 180.936C195.093 181.405 194.699 181.38 194.344 180.974C193.15 179.603 191.843 178.346 190.51 177.114C189.329 176.023 188.136 174.969 186.917 173.928C185 172.29 183.007 170.741 180.963 169.243C177.256 166.526 173.409 164.025 169.448 161.69C167.709 160.661 165.944 159.658 164.154 158.706C161.856 157.487 159.546 156.294 157.21 155.177C153.427 153.374 149.593 151.673 145.67 150.162Z" fill="#D16B7F"/>
<path d="M146.088 122.753C145.694 121.991 145.313 121.242 144.92 120.481C146.862 117.878 148.881 115.352 151.09 112.965C153.984 109.855 156.993 106.884 160.37 104.294C163.214 102.11 166.21 100.206 169.422 98.6446C172.634 97.0958 175.985 95.9913 179.489 95.3819C180.886 95.128 182.32 95.0391 183.755 94.9376C187.513 94.6837 191.169 95.2676 194.8 96.1309C194.939 96.169 195.066 96.2325 195.193 96.334C194.292 96.2071 193.403 96.2452 192.515 96.2452C190.636 96.2452 188.757 96.169 186.878 96.3848C184.098 96.6895 181.355 97.1846 178.664 97.9717C175.693 98.835 172.837 99.9776 170.095 101.387C166.451 103.266 163.062 105.538 159.875 108.128C157.349 110.185 154.987 112.419 152.766 114.78C150.455 117.231 148.31 119.833 146.316 122.55C146.24 122.613 146.164 122.677 146.088 122.753Z" fill="#D16B7F"/>
<path d="M114.705 160.077C115.34 160.369 115.975 160.674 116.609 160.966C115.822 162.312 115.035 163.657 114.261 165.003C112.94 167.301 111.607 169.611 110.3 171.922C108.345 175.375 106.377 178.803 104.231 182.154C102.67 184.592 101.007 186.94 99.1279 189.137C97.084 191.549 94.7988 193.694 91.8662 195.04C90.5713 195.637 89.1875 195.903 87.7656 196.005C87.5371 196.018 87.2959 196.018 87.0801 195.815C88.21 195.04 89.3271 194.253 90.3809 193.377C92.3486 191.752 94.1641 189.962 95.8398 188.045C97.541 186.115 99.1406 184.109 100.664 182.04C103.025 178.803 105.247 175.464 107.354 172.062C109.411 168.748 111.455 165.422 113.499 162.096C113.931 161.423 114.426 160.814 114.705 160.077Z" fill="#D16B7F"/>
<path d="M122.704 108.141C122.12 108.179 121.523 108.217 120.939 108.268C121.016 106.478 120.901 104.675 120.774 102.898C120.622 100.6 120.432 98.2891 120.19 95.9913C119.898 93.084 119.53 90.1895 119.124 87.3077C118.769 84.794 118.324 82.293 117.854 79.7921C117.004 75.1837 116.039 70.6006 114.947 66.043C114.427 63.8721 113.868 61.7139 113.424 59.4922C113.64 59.7715 113.868 60.0381 114.071 60.3301C115.646 62.6153 116.813 65.1163 117.753 67.7315C119.099 71.4893 119.898 75.3868 120.521 79.3096C120.876 81.5694 121.13 83.8419 121.32 86.127C121.511 88.3741 121.701 90.6085 121.828 92.8555C121.955 95.1407 122.107 97.4385 122.209 99.7237C122.323 102.098 122.476 104.472 122.59 106.846C122.615 107.265 122.729 107.696 122.704 108.141Z" fill="#D16B7F"/>
<path d="M101.502 121.623C101.362 122.118 101.083 122.55 100.855 123.02C100.118 122.309 99.6866 121.382 99.1407 120.531C97.3253 117.688 95.7384 114.717 94.2404 111.695C93.504 110.21 93.0851 108.636 92.7423 107.023C92.6915 106.897 92.755 106.871 92.8693 106.897C94.3546 110.185 96.0558 113.346 97.9474 116.418C99.0011 118.119 100.106 119.782 101.274 121.407C101.337 121.483 101.426 121.547 101.502 121.623Z" fill="#A87A92"/>
<path d="M148.843 76.6944C149.288 77.0372 149.554 77.5069 149.757 78.002C150.367 79.4493 150.963 80.9092 151.357 82.4454C151.382 82.5469 151.382 82.6485 151.395 82.7628C150.671 83.2833 149.96 83.8038 149.237 84.3243C148.894 83.5499 148.983 82.712 148.945 81.8995C148.881 80.4395 148.818 78.9922 148.691 77.545C148.653 77.253 148.615 76.9483 148.843 76.6944Z" fill="#FEFEFE"/>
<path d="M148.843 76.6944C149.046 79.2335 149.173 81.7725 149.224 84.3116C149.046 84.629 148.703 84.7305 148.424 84.9971C148.284 84.7432 148.323 84.4893 148.348 84.2608C148.665 81.671 148.361 79.0811 148.297 76.4913C148.259 74.7266 147.98 72.9747 147.815 71.2227C147.764 71.0958 147.827 71.0704 147.929 71.0958C148.132 72.2383 148.348 73.3936 148.551 74.5362C148.754 74.8409 148.792 75.1837 148.691 75.5391C148.754 75.9327 148.64 76.3262 148.843 76.6944Z" fill="#A97A93"/>
<path d="M121.955 44.8038C122.311 44.588 122.679 44.6895 123.047 44.753C123.72 44.8546 124.405 44.9815 125.078 45.0958C125.091 45.0958 125.104 45.1212 125.104 45.1339C125.053 45.1593 125.015 45.1973 124.964 45.2227C123.974 45.0704 122.958 44.9307 121.955 44.8038Z" fill="#F8EBEE"/>
<path d="M92.8706 106.897C92.8325 106.935 92.7817 106.985 92.7437 107.024C92.5278 106.528 92.3882 106.033 92.4644 105.475C92.604 105.944 92.731 106.427 92.8706 106.897Z" fill="#C57D94"/>
<path d="M147.955 71.0958C147.917 71.1338 147.879 71.1719 147.841 71.2227C147.676 70.7149 147.6 70.2071 147.6 69.6739C147.803 70.1309 147.904 70.6133 147.955 71.0958Z" fill="#C28B9F"/>
<path d="M148.463 130.764C148.425 130.802 148.374 130.853 148.336 130.891C148.145 130.611 148.247 130.294 148.222 129.989C148.399 130.218 148.399 130.51 148.463 130.764Z" fill="#BC8D6D"/>
<path d="M148.716 75.5391C148.563 75.2217 148.602 74.879 148.576 74.5362C148.995 74.8409 149.046 75.171 148.716 75.5391Z" fill="#FBFAFA"/>
<defs>
<clipPath id="clip0">
<rect width="260" height="260" fill="white"/>
</clipPath>
</defs>
</svg>
