<svg width="96" height="96" viewBox="0 0 96 96" fill="none" xmlns="http://www.w3.org/2000/svg">
<path fill-rule="evenodd" clip-rule="evenodd" d="M49.8702 84.1559C68.8057 84.1559 84.1559 68.8057 84.1559 49.8702C84.1559 30.9347 68.8057 15.5845 49.8702 15.5845C30.9347 15.5845 15.5845 30.9347 15.5845 49.8702C15.5845 68.8057 30.9347 84.1559 49.8702 84.1559Z" fill="#3C55F9"/>
<path fill-rule="evenodd" clip-rule="evenodd" d="M48 0C21.4899 0 0 21.4899 0 48C0 74.5101 21.4899 96 48 96C74.5101 96 96 74.5101 96 48C96 21.4903 74.5097 0 48 0ZM67.7401 68.0479L47.684 79.6468V79.651H47.6757L27.6072 68.0479V27.9107L27.6279 27.9232L47.6674 16.3491L60.5297 23.5263H60.5339V41.6458L54.2752 38.051V27.1377L47.6757 23.3767L33.8617 31.3642V64.6359L47.6757 72.6235L61.4897 64.6609L61.5562 50.9881L41.9282 39.6011L48.2326 36.2847L67.79 47.6884L67.7401 68.0479ZM51.4595 46.6962L51.4575 46.6951H51.4617L51.4595 46.6962ZM51.4595 46.6962L46.9734 49.0888V44.1392L41.9282 41.1636V57.654L56.2907 49.4753L51.4595 46.6962Z" fill="white"/>
</svg>
