<?xml version="1.0" encoding="utf-8"?>
<!-- Generator: Adobe Illustrator 23.0.1, SVG Export Plug-In . SVG Version: 6.00 Build 0)  -->
<svg version="1.0" id="Layer_1" xmlns="http://www.w3.org/2000/svg" xmlns:xlink="http://www.w3.org/1999/xlink" x="0px" y="0px"
	 viewBox="0 0 1024 1024" enable-background="new 0 0 1024 1024" xml:space="preserve">
<g>
	<path d="M12.29,98.43c-0.36,49.92-0.11,99.85-0.11,149.77c0,224.17-0.02,448.35,0.01,672.52c0.01,48.59,29.38,83.9,76.29,91.65
		c6.06,1,12.35,0.92,18.53,0.92c271.16,0.04,542.32,0.04,813.48,0.03c48.06,0,78.94-23.21,92.53-69.54
		c0.38-1.28,0.55-2.51,2.03-2.93c0-285.33,0-570.65,0-855.98c-1.52-4.75-2.8-9.6-4.59-14.24c-12.48-32.32-34.72-53.06-69.76-58.57
		c-0.74-0.12-1.36-1.07-2.03-1.63c-283.37,0-566.74,0-850.1,0c-14.23,4.16-28.51,7.97-40.61,17.38
		C24.82,45.79,12.49,69.22,12.29,98.43z M551.71,69c123.98,0.28,247.97,0.18,371.95,0.22c20.78,0.01,32.62,11.92,32.62,32.83
		c0.04,123.98-0.04,247.97,0.17,371.95c0.01,6.58-1.19,8.7-8.31,8.68c-132.47-0.24-264.93-0.23-397.4-0.02
		c-6.58,0.01-7.9-1.92-7.88-8.11c0.22-66.23,0.14-132.47,0.14-198.7c0-65.91,0.12-131.81-0.17-197.72
		C542.8,71.06,544.17,68.99,551.71,69z M543,747.97c0-65.91,0.11-131.81-0.16-197.72c-0.03-6.98,1.18-9.21,8.82-9.19
		c132.14,0.28,264.28,0.27,396.41,0.03c7.03-0.01,8.39,1.93,8.38,8.61c-0.21,123.98-0.14,247.96-0.17,371.94
		c-0.01,21.26-11.9,32.9-33.55,32.9c-123.65,0.02-247.31-0.07-370.96,0.2c-7.43,0.02-8.98-1.88-8.94-9.07
		C543.12,879.78,543,813.87,543,747.97z M70.94,103.94c0-23.54,11.16-34.73,34.65-34.73c123-0.01,246.01,0.1,369.01-0.23
		c8.45-0.02,9.86,2.37,9.82,10.2c-0.34,65.58-0.19,131.16-0.19,196.74c0,65.91-0.13,131.81,0.18,197.72
		c0.03,7.23-1.57,9.07-8.96,9.05c-131.81-0.26-263.63-0.28-395.44,0.03c-8.14,0.02-9.23-2.63-9.22-9.76
		C70.99,349.95,70.93,226.94,70.94,103.94z M79.04,541.08c132.46,0.25,264.93,0.23,397.4,0.03c6.47-0.01,7.96,1.75,7.94,8.04
		c-0.23,66.23-0.14,132.46-0.14,198.7c0,65.91-0.11,131.81,0.16,197.72c0.03,6.96-1.16,9.21-8.82,9.2
		c-123.98-0.29-247.96-0.19-371.95-0.22c-20.81-0.01-32.68-11.92-32.68-32.78c-0.03-123.98,0.03-247.96-0.16-371.95
		C70.78,543.32,71.84,541.07,79.04,541.08z"/>
	<path fill="#FEFEFE" d="M1015.06,940.85c-1.49,0.42-1.66,1.65-2.03,2.93c-13.59,46.33-44.47,69.54-92.53,69.54
		c-271.16,0.01-542.32,0.01-813.48-0.03c-6.18,0-12.47,0.08-18.53-0.92c-46.91-7.75-76.28-43.06-76.29-91.65
		c-0.03-224.17-0.02-448.35-0.01-672.52c0-49.92-0.24-99.85,0.11-149.77c0.21-29.21,12.54-52.64,35.67-70.61
		c12.1-9.41,26.38-13.22,40.61-17.38c-23.18,0-46.37,0.35-69.53-0.2c-7.38-0.18-9.01,1.67-9,9.02c0.21,329.07,0.21,658.15,0,987.22
		c0,7.34,1.66,9,9,9c329.07-0.21,658.15-0.18,987.22-0.18c1.31,0,2.65-0.21,3.91,0.04c4.22,0.84,5.08-0.72,5.03-4.94
		C1014.92,987.21,1015.06,964.03,1015.06,940.85z"/>
	<path fill="#FEFEFE" d="M940.7,12.06c35.04,5.5,57.29,26.24,69.76,58.57c1.79,4.65,3.08,9.49,4.59,14.24
		c0-23.03-0.17-46.06,0.14-69.09c0.06-4.61-0.92-5.54-5.5-5.48c-23.67,0.29-47.35,0.14-71.03,0.14
		C939.34,11,939.96,11.95,940.7,12.06z"/>
	<path d="M663,306.18c57.07,0.08,114.14,0.07,171.22,0c18.85-0.02,32.05-12.39,31.95-29.55c-0.1-17.11-13.32-29.12-32.32-29.17
		c-28.05-0.07-56.09-0.02-84.14-0.02c-29.03,0-58.05-0.08-87.08,0.03c-18.14,0.07-31.29,12.35-31.46,29.04
		C631,293.64,644.26,306.16,663,306.18z"/>
	<path d="M192.2,306.18c15.99,0.14,32,0.39,47.97-0.14c6.96-0.23,9.58,1.07,9.23,8.82c-0.72,15.96-0.3,31.98-0.19,47.97
		c0.13,18.22,12.3,31.33,29.05,31.5c17.13,0.18,29.55-13.08,29.66-31.88c0.1-16.64,0.24-33.29-0.11-49.93
		c-0.11-5.28,1.59-6.5,6.58-6.41c16.64,0.29,33.29,0.19,49.93,0.09c18.76-0.12,31.98-12.63,31.72-29.81
		c-0.25-16.76-13.33-28.79-31.64-28.9c-15.99-0.1-32-0.36-47.97,0.14c-6.63,0.21-8.94-1.21-8.69-8.35
		c0.59-16.62,0.37-33.29,0.13-49.93c-0.25-17.26-13.12-30.12-29.52-30.01c-16.4,0.11-28.85,13.03-29.15,30.41
		c-0.15,8.48,0.03,16.97-0.05,25.46c-0.1,10.39,3.72,24.42-1.53,30.22c-5.98,6.63-20.23,1.15-28.88,2.03
		c-10.13,0-18.29-0.08-26.45,0.02c-18.08,0.21-31.22,12.57-31.25,29.3C161.04,293.54,174.13,306.02,192.2,306.18z"/>
	<path d="M229.24,738.95c6.13,5.7,7.51,9.38,0.38,15.67c-11.23,9.92-21.46,20.98-31.99,31.68c-13.57,13.77-14.43,31.11-2.29,43.49
		c12.12,12.36,29.77,11.83,43.5-1.56c11.21-10.94,22.61-21.73,33.1-33.34c5.55-6.14,8.63-4.86,13.53,0.36
		c10.27,10.94,21.09,21.36,31.76,31.93c14.37,14.24,31.58,15.36,44.2,2.98c12.62-12.39,11.8-29.95-2.23-44.22
		c-10.52-10.71-20.9-21.59-31.94-31.74c-5.75-5.29-6.78-8.47-0.35-14.25c11.62-10.47,22.44-21.85,33.34-33.11
		c12.93-13.36,13.4-30.74,1.5-42.81c-12.17-12.34-29.84-11.75-43.48,1.65c-11.18,10.97-22.43,21.9-33.13,33.32
		c-4.76,5.09-7.58,6.09-12.85,0.31c-10.77-11.8-22.52-22.7-33.76-34.07c-6.26-6.33-13.73-9.72-23.12-10.15
		c-11.36,1.15-20.72,6.19-25.76,17.44c-5.39,12.02-3.12,23.17,5.68,32.52C206.26,716.7,217.53,728.08,229.24,738.95z"/>
	<path d="M663.68,717.53c28.37,0.07,56.75,0.02,85.12,0.02c28.05,0,56.09,0.03,84.14-0.01c19.85-0.03,33.15-11.8,33.22-29.27
		c0.07-17.48-13.25-29.45-33.01-29.47c-56.42-0.04-112.84-0.04-169.26,0c-19.54,0.02-32.96,12.3-32.73,29.74
		C631.4,705.6,644.63,717.49,663.68,717.53z"/>
	<path d="M833.95,776.34c-28.37-0.08-56.75-0.02-85.12-0.02c-28.7,0-57.4-0.08-86.1,0.03c-18.19,0.07-31.34,12.26-31.56,28.94
		c-0.23,17.12,13.04,29.74,31.72,29.77c57.07,0.08,114.14,0.07,171.22,0c18.9-0.02,32.09-12.29,32.05-29.45
		C866.12,788.48,852.91,776.39,833.95,776.34z"/>
</g>
</svg>
