<?xml version="1.0" encoding="utf-8"?>
<!-- Generator: Adobe Illustrator 23.0.1, SVG Export Plug-In . SVG Version: 6.00 Build 0)  -->
<svg version="1.1" id="Layer_1" xmlns="http://www.w3.org/2000/svg" xmlns:xlink="http://www.w3.org/1999/xlink" x="0px" y="0px"
	 viewBox="0 0 1024 1024" style="enable-background:new 0 0 1024 1024;" xml:space="preserve">
<style type="text/css">
	.st0{fill:#FEFEFE;}
	.st1{fill:#0D0D0D;}
	.st2{fill:#4D4D4D;}
	.st3{fill:#4E4E4E;}
	.st4{fill:#707070;}
	.st5{fill:#353535;}
	.st6{fill:#8F8F8F;}
	.st7{fill:#838383;}
	.st8{fill:#646464;}
	.st9{fill:#494949;}
</style>
<g>
	<path d="M19.79,414.26C-25.24,650.34,96.27,880.4,315.97,975.04c285.5,122.98,616.99-44.54,687.59-347.39
		c5.14-22.04,8.49-44.33,11.24-66.75c0.25-2-1.05-4.8,2.17-5.75c0-3.28,0-6.55,0-9.83c-2.42-0.47-1.9-2.22-1.66-3.84
		c0.01-1.31,0.01-2.61,0.02-3.92c-0.3-1.69-0.2-3.22,1.64-4.04c0-1.97,0-3.93,0-5.9c-3.04-3.93-2.95-7.87,0-11.8
		c0-2.62,0-5.24,0-7.87c-2.95-3.93-3.04-7.87,0-11.8c0-1.97,0-3.93,0-5.9c-1.85-0.82-1.97-2.34-1.64-4.05
		c0-1.31-0.01-2.61-0.01-3.92c-0.22-1.61-0.73-3.34,1.65-3.83c0-1.97,0-3.93,0-5.9c-4.2-11.33-3.81-23.41-5.46-35.13
		C982.84,233.99,823.98,63.42,622.72,20.31c-21.78-4.67-43.72-8.26-65.96-9.84c-1.56-0.11-3.35,0.27-3.82-1.95
		c-1.31,0-2.62,0-3.93,0c-0.45,2.48-2.22,1.9-3.85,1.65c-1.3,0.01-2.6,0.02-3.9,0.03c-1.96-0.01-3.92-0.02-5.88-0.03c0,0,0,0,0,0
		c0,0,0,0,0,0c-1.7,0.29-3.2,0.1-4.06-1.66c-11.8,0-23.6,0-35.39,0c-0.86,1.76-2.36,1.95-4.06,1.66c-1.96,0.01-3.92,0.02-5.88,0.04
		c0,0,0,0,0,0c-1.61,0.19-3.29,0.54-3.82-1.7c-3.28,0-6.55,0-9.83,0c-10.57,4.51-22.04,3.82-33.08,5.42
		C230.34,44.18,59.26,207.33,19.79,414.26z M482.15,248.14c0-6.23-0.14-12.46,0.04-18.67c0.55-18.26,14.36-32.26,31.58-32.18
		c17.52,0.08,30.9,13.85,31.27,32.3c0.14,6.88,0.5,13.8-0.08,20.63c-0.8,9.42,3.14,13.95,12.08,17.07
		c51.33,17.93,83.13,53.72,95.29,106.74c1.97,8.6,2.93,17.42,2.84,26.31c-0.17,18.1-13.78,32.61-30.92,32.88
		c-17.58,0.28-31.12-13.09-31.99-31.59c-2.09-44.19-34.37-77.5-76.01-78.45c-43.72-1-80.31,33.31-81.21,76.14
		c-0.93,44.19,33.06,80.04,77.26,81.03c53.63,1.21,95.4,23.94,123,69.86c45.94,76.43,9.34,175.44-75.07,205.39
		c-15.16,5.38-14.97,5.38-15.24,21.51c-0.15,8.78,1.3,17.63-1.5,26.33c-4.91,15.28-18.47,24.68-33.51,22.88
		c-15.53-1.86-27.17-14.67-27.78-30.7c-0.16-4.25-0.02-8.52-0.04-12.78c-0.01-2.29-0.01-4.59-0.01-6.88
		c-0.01-15.16-0.2-15.43-14.35-20.19c-55.42-18.66-94.64-71.9-95.69-129.91c-0.36-19.82,12.47-34.74,30.36-35.3
		c18.26-0.58,31.74,13.12,32.53,33.06c1.77,44.59,36.99,77.89,81.39,76.95c41.48-0.87,75.82-36.49,75.81-78.61
		c-0.01-43.39-34.3-77.61-78.78-78.61c-82.31-1.86-143.9-66.44-141.23-148.07c1.85-56.47,41.36-109.23,95.29-127.22
		C481.96,263.24,482.14,263.01,482.15,248.14z"/>
	<path class="st0" d="M1014.8,560.9c-2.75,22.42-6.1,44.71-11.24,66.75c-70.6,302.85-402.09,470.36-687.59,347.39
		C96.27,880.4-25.24,650.34,19.79,414.26C59.26,207.33,230.34,44.18,439.24,13.94c11.03-1.6,22.5-0.91,33.08-5.42
		c-152.06,0-304.12,0.06-456.18-0.19C9.4,8.32,8.08,9.66,8.08,16.39c0.21,330.99,0.21,661.98,0,992.97c0,6.73,1.32,8.06,8.05,8.05
		c330.99-0.21,661.98-0.21,992.97,0c6.73,0,8.07-1.32,8.05-8.05c-0.25-151.4-0.19-302.81-0.19-454.21
		C1013.75,556.11,1015.05,558.9,1014.8,560.9z"/>
	<path class="st0" d="M556.75,10.47c22.24,1.58,44.18,5.18,65.96,9.84c201.26,43.11,360.13,213.68,388.8,417.13
		c1.65,11.72,1.26,23.8,5.46,35.13c0-151.9-0.06-303.8,0.19-455.7c0.01-7.09-1.46-8.55-8.54-8.54c-151.9,0.25-303.8,0.19-455.7,0.19
		C553.41,10.74,555.19,10.36,556.75,10.47z"/>
	<path class="st1" d="M1016.98,507.96c0-3.93,0-7.87,0-11.8C1013.94,500.1,1014.03,504.03,1016.98,507.96z"/>
	<path class="st1" d="M1016.98,527.62c0-3.93,0-7.87,0-11.8C1014.03,519.76,1013.94,523.69,1016.98,527.62z"/>
	<path class="st2" d="M485.97,10.22c1.96-0.01,3.92-0.02,5.88-0.04c0.06-0.55,0.1-1.11,0.13-1.66c-1.97,0-3.93,0-5.9,0
		C486.09,9.09,486.05,9.66,485.97,10.22z"/>
	<path class="st3" d="M535.37,10.18C535.37,10.18,535.37,10.18,535.37,10.18c1.96,0.01,3.92,0.02,5.88,0.03
		c-0.08-0.56-0.12-1.12-0.11-1.69c-1.97,0-3.93,0-5.9,0C535.26,9.08,535.3,9.63,535.37,10.18z"/>
	<path class="st4" d="M485.97,10.23C485.97,10.23,485.97,10.22,485.97,10.23c0.09-0.56,0.12-1.13,0.11-1.7c-1.31,0-2.62,0-3.93,0
		C482.67,10.77,484.36,10.41,485.97,10.23z"/>
	<path class="st5" d="M491.85,10.19c1.7,0.29,3.2,0.1,4.06-1.66c-1.31,0-2.62,0-3.93,0C491.95,9.08,491.91,9.63,491.85,10.19z"/>
	<path class="st5" d="M535.37,10.19C535.37,10.19,535.37,10.18,535.37,10.19c-0.06-0.55-0.11-1.11-0.13-1.66c-1.31,0-2.62,0-3.93,0
		C532.16,10.29,533.67,10.48,535.37,10.19z"/>
	<path class="st4" d="M541.25,10.21c1.3-0.01,2.6-0.02,3.9-0.03c-0.06-0.55-0.09-1.1-0.08-1.65c-1.31,0-2.62,0-3.93,0
		C541.13,9.09,541.17,9.65,541.25,10.21z"/>
	<path class="st6" d="M545.15,10.18c1.63,0.25,3.4,0.83,3.85-1.65c-1.31,0-2.62,0-3.93,0C545.06,9.08,545.09,9.63,545.15,10.18z"/>
	<path class="st7" d="M1015.32,482.3c0.55,0,1.1,0.04,1.65,0.1c0-1.31,0-2.62,0-3.93C1014.6,478.96,1015.1,480.69,1015.32,482.3z"/>
	<path class="st8" d="M1015.32,482.3c0,1.31,0.01,2.61,0.01,3.92c0.55,0.03,1.1,0.06,1.64,0.11c0-1.31,0-2.62,0-3.93
		C1016.43,482.34,1015.88,482.3,1015.32,482.3z"/>
	<path class="st9" d="M1015.33,486.22c-0.32,1.7-0.2,3.22,1.64,4.05c0-1.31,0-2.62,0-3.93
		C1016.43,486.28,1015.88,486.25,1015.33,486.22z"/>
	<path class="st9" d="M1015.33,537.57c0.55-0.02,1.1-0.06,1.64-0.11c0-1.31,0-2.62,0-3.93
		C1015.13,534.34,1015.03,535.87,1015.33,537.57z"/>
	<path class="st8" d="M1015.33,537.57c-0.01,1.31-0.01,2.61-0.02,3.92c0.55-0.03,1.11-0.06,1.66-0.09c0-1.31,0-2.62,0-3.93
		C1016.43,537.5,1015.88,537.54,1015.33,537.57z"/>
	<path class="st7" d="M1015.31,541.48c-0.24,1.62-0.75,3.37,1.66,3.84c0-1.31,0-2.62,0-3.93
		C1016.42,541.42,1015.87,541.45,1015.31,541.48z"/>
	<path class="st0" d="M372.19,395.29c-2.67,81.64,58.92,146.21,141.23,148.07c44.48,1,78.77,35.22,78.78,78.61
		c0.01,42.12-34.33,77.73-75.81,78.61c-44.4,0.94-79.62-32.36-81.39-76.95c-0.79-19.94-14.27-33.64-32.53-33.06
		c-17.89,0.56-30.72,15.48-30.36,35.3c1.05,58,40.27,111.25,95.69,129.91c14.15,4.76,14.34,5.03,14.35,20.19
		c0,2.29,0,4.59,0.01,6.88c0.01,4.26-0.12,8.52,0.04,12.78c0.61,16.03,12.25,28.84,27.78,30.7c15.04,1.8,28.6-7.6,33.51-22.88
		c2.8-8.7,1.35-17.56,1.5-26.33c0.28-16.13,0.08-16.13,15.24-21.51c84.4-29.95,121.01-128.96,75.07-205.39
		c-27.6-45.92-69.37-68.65-123-69.86c-44.21-1-78.19-36.84-77.26-81.03c0.9-42.83,37.49-77.14,81.21-76.14
		c41.64,0.95,73.91,34.26,76.01,78.45c0.88,18.5,14.42,31.87,31.99,31.59c17.14-0.27,30.76-14.78,30.92-32.88
		c0.08-8.89-0.87-17.71-2.84-26.31c-12.16-53.01-43.96-88.81-95.29-106.74c-8.94-3.12-12.88-7.65-12.08-17.07
		c0.58-6.83,0.22-13.75,0.08-20.63c-0.37-18.45-13.75-32.22-31.27-32.3c-17.21-0.08-31.02,13.92-31.58,32.18
		c-0.19,6.22-0.04,12.45-0.04,18.67c-0.01,14.86-0.18,15.1-14.67,19.93C413.55,286.06,374.03,338.82,372.19,395.29z"/>
</g>
</svg>
