<?xml version="1.0" encoding="utf-8"?>
<!-- Generator: Adobe Illustrator 23.0.1, SVG Export Plug-In . SVG Version: 6.00 Build 0)  -->
<svg version="1.1" id="Layer_1" xmlns="http://www.w3.org/2000/svg" xmlns:xlink="http://www.w3.org/1999/xlink" x="0px" y="0px"
	 viewBox="0 0 1024 1024" style="enable-background:new 0 0 1024 1024;" xml:space="preserve">
<style type="text/css">
	.st0{fill:#D5B118;}
	.st1{fill:#F0C30F;}
	.st2{fill:#E4BC13;}
	.st3{fill:#D5B21B;}
	.st4{fill:#D5B219;}
	.st5{fill:#E6C84C;}
	.st6{fill:#E2C547;}
	.st7{fill:#E5C74A;}
	.st8{fill:#E2C447;}
	.st9{fill:#E3C544;}
	.st10{fill:#E6C746;}
	.st11{fill:#E0BE31;}
	.st12{fill:#DFBE32;}
	.st13{fill:#DFBE31;}
	.st14{fill:#E0BE32;}
	.st15{fill:#E5C543;}
	.st16{fill:#E4C645;}
	.st17{fill:#E5C645;}
	.st18{fill:#E5C540;}
</style>
<path class="st0" d="M603.2,745.8c-7.74-27.23-9.79-55.21-11.2-83.28c-17.62,40.37-35.26,80.74-52.87,121.13
	c-5.73,13.14-8.02,13.57-19.41,5.24c-19.34-14.15-36.56-30.35-50.45-49.97l0,0c0,0,0,0,0,0c-11.73-12.95-20.57-27.89-28.65-43.19
	c-37.43-70.88-51.31-147.51-54.48-226.64c-3.9-97.39,8.67-193.19,28.5-288.23c6.08-29.15,13.03-58.12,19.58-87.18c0,0,0,0,0,0
	c0,0,0,0,0,0c-0.7-0.74-1.41-1.49-2.11-2.23c-20.71,62.23-40.14,124.85-54.87,188.81c-7.87,34.18-15.89,68.37-20.32,103.25
	c-0.34,2.71-1.31,5.35-1.99,8.02l0,0c-0.45,3.46,1.44,7.38-2.01,10.26c-0.02,1.42-0.04,2.83-0.06,4.25c0,0,0,0,0,0c0,0,0,0,0,0
	c-0.49,3.49,1.43,7.45-2.04,10.36c-0.02,1.42-0.04,2.84-0.06,4.26c0,0,0,0,0,0c0,0,0,0,0,0c-0.48,3.49,1.44,7.46-2.04,10.36
	c-0.03,1.47-0.06,2.94-0.09,4.42c0,0,0,0,0,0c-0.74,4.78,1.97,10.03-2,14.36c-0.02,2.12-0.04,4.24-0.06,6.37c0,0,0,0,0,0
	c-0.85,5.49,2.07,11.44-2.02,16.54c-0.02,3.52-0.04,7.03-0.06,10.55c0,0,0,0,0,0c-0.81,6.88,2.09,14.13-2.02,20.69
	c-0.03,5.62-0.06,11.23-0.08,16.85c0,0,0,0,0,0c0,22.15,0,44.29,0,66.44c0.03,5.61,0.05,11.22,0.08,16.82
	c4.08,5.11,1.21,11.06,2.03,16.56c0.02,2.84,0.05,5.68,0.07,8.52c3.92,4.39,1.28,9.69,2.03,14.51c0.01,2.07,0.01,4.14,0.02,6.21
	c0,0,0,0,0,0c3.49,2.92,1.57,6.9,2.05,10.41c0,0,0,0,0,0c0.02,1.43,0.04,2.86,0.06,4.28c3.45,2.88,1.57,6.8,2.02,10.27
	c0.02,0.74,0.04,1.49,0.06,2.23c3.46,2.87,1.58,6.79,2.02,10.25c6.79,32.72,14.73,65.04,26.75,96.4
	c13.7,35.73,31.86,68.72,55.07,99.04c2.72,3.55,5.19,7.28,7.78,10.93c0,0,0,0,0,0c0,0,0,0,0,0c0.9,1.67,2.45,2.04,4.16,2.08
	c0,0,0,0,0,0c0,0,0,0,0,0c2.1,2.41,9.42,3.47,2.14,8.29c-1.97,3.58-4.78,6.34-8.31,8.38c0,0,0,0,0,0c-1.88,3.32-4.18,6.08-8.38,6.3
	c-7.87,10.99-19.86,17.56-29.13,27.04c0,0,0,0,0,0c-1.87,3.32-4.18,6.07-8.38,6.3c-2.68,4.24-6.14,7.7-10.37,10.37c0,0,0,0,0,0
	c-1.87,3.32-4.18,6.07-8.38,6.29c-2.68,4.24-6.13,7.7-10.38,10.37c0,0,0,0,0,0c-1.81,3.41-4.32,5.93-8.35,6.5
	c-0.01,0.4-0.02,0.81-0.03,1.21c3.82,1.62,7.54,3.54,11.46,4.82c105.77,34.68,210.4,28.82,314-9.28
	c24.91-9.16,48.92-20.34,72.24-33.92c-13.23-10.56-26.06-19.99-37.98-30.48C663.33,870.91,622.91,815.16,603.2,745.8z"/>
<path class="st1" d="M440.21,894.42c-0.1-0.11-0.21-0.19-0.31-0.3c-48.94-60.35-75.88-130.23-89.38-205.94
	c-0.43-3.51-0.11-7.12-1.3-10.54c-0.29-0.96-0.48-1.95-0.64-2.94c-0.4-3.43-0.41-6.93-1.57-10.25c-0.4-1.47-0.65-2.96-0.78-4.47
	c-0.19-3.54-0.27-7.1-1.47-10.51c-0.51-2.06-0.77-4.15-0.86-6.27c-0.12-4.81,0.32-9.67-1.32-14.35c-0.6-2.71-0.84-5.46-0.89-8.23
	c-0.04-5.52,0.61-11.08-1.21-16.48c-1.66-6.33-1.43-12.76-0.97-19.2c0.03-21.11,0.09-42.21-0.07-63.3
	c-0.3-5.64-0.18-11.26,0.74-16.84c2.27-6.92,1.37-14.07,1.42-21.15c-0.1-3.5,0.17-6.98,0.84-10.42c1.9-5.41,1.27-11.04,1.39-16.6
	c0.04-2.21,0.34-4.39,0.82-6.54c1.69-4.59,1.18-9.41,1.46-14.15c0.09-1.57,0.37-3.1,0.74-4.62c1.22-3.37,1.28-6.92,1.46-10.45
	c0.1-1.52,0.37-3.01,0.74-4.49c1.19-3.37,1.15-6.9,1.36-10.41c0.1-1.56,0.37-3.09,0.74-4.61c1.23-3.59,0.95-7.37,1.38-11.06
	c15.31-96.83,40.47-191.17,71.86-283.92c1.76-5.19,2.62-10.87,6.95-14.89c0.29-0.1,0.56-0.18,0.82-0.24
	c0.67-2.03,1.35-4.06,2.02-6.1c1.7-5.74,2.39-11.88,6.61-16.61c0,0,0,0,0,0c0,0,0,0,0,0c1.28-3.91,2.4-7.89,3.9-11.72
	c1.51-3.84,0.86-6.35-2.94-8.52c-21.66-12.4-43.21-24.99-65.09-37.69c-1.11,2.28-2.19,4.06-2.88,5.99
	c-45.46,125.87-81.69,254.03-96.48,387.54c-8.95,80.79-9.68,161.45,4.97,241.68c14.57,79.79,42.91,153.49,98.59,214.5
	c18.93,11.21,37.86,22.41,56.76,33.67C438.58,894.56,439.41,894.59,440.21,894.42z"/>
<path class="st1" d="M432.17,91.26c-0.26,0.06-0.53,0.14-0.82,0.24c-4.33,4.02-5.2,9.7-6.95,14.89
	c-31.39,92.75-56.55,187.09-71.86,283.92c-0.42,3.7-0.15,7.47-1.38,11.06c-0.37,1.52-0.64,3.05-0.74,4.61
	c-0.21,3.5-0.17,7.04-1.36,10.41c-0.37,1.47-0.64,2.97-0.74,4.49c-0.18,3.53-0.24,7.07-1.46,10.45c-0.38,1.52-0.65,3.06-0.74,4.62
	c-0.28,4.74,0.23,9.56-1.46,14.15c-0.48,2.15-0.78,4.33-0.82,6.54c-0.12,5.56,0.5,11.19-1.39,16.6c-0.67,3.44-0.94,6.91-0.84,10.42
	c-0.05,7.08,0.85,14.23-1.42,21.15c-0.92,5.58-1.04,11.2-0.74,16.84c0.16,21.09,0.1,42.19,0.07,63.3
	c-0.46,6.45-0.68,12.87,0.97,19.2c1.82,5.39,1.17,10.96,1.21,16.48c0.05,2.77,0.29,5.52,0.89,8.23c1.64,4.68,1.21,9.53,1.32,14.35
	c0.09,2.12,0.35,4.21,0.86,6.27c1.2,3.41,1.28,6.96,1.47,10.51c0.13,1.51,0.37,3,0.78,4.47c1.16,3.32,1.17,6.82,1.57,10.25
	c0.15,0.99,0.35,1.98,0.64,2.94c1.19,3.42,0.87,7.03,1.3,10.54c13.51,75.71,40.45,145.6,89.38,205.94c0.09,0.11,0.21,0.19,0.31,0.3
	c0.75-0.16,1.48-0.5,2.24-0.77c0,0,0,0,0,0c-2.59-3.65-5.07-7.38-7.78-10.93c-23.21-30.32-41.37-63.31-55.07-99.04
	c-12.02-31.36-19.96-63.68-26.75-96.4c-3.46-2.87-1.59-6.78-2.02-10.25c0,0,0,0,0,0c-0.02-0.74-0.04-1.49-0.06-2.23
	c-3.48-2.87-1.58-6.8-2.02-10.27c0,0,0,0,0,0c-0.02-1.43-0.04-2.85-0.06-4.28c0,0,0,0,0,0c0,0,0,0,0,0
	c-3.48-2.92-1.58-6.9-2.05-10.41c0,0,0,0,0,0c0,0,0,0,0,0c-0.01-2.07-0.01-4.14-0.02-6.21c-4.02-4.37-1.3-9.69-2.03-14.52
	c0,0,0,0,0,0c-0.02-2.84-0.05-5.68-0.07-8.52c-4.18-5.09-1.1-11.07-2.03-16.56l0,0c-0.03-5.61-0.05-11.22-0.08-16.82
	c-3.57-3.38-1.9-7.76-1.95-11.66c-0.21-15.06-0.15-30.12-0.03-45.18c0.03-3.26-1.23-6.94,1.98-9.6c0.03-5.62,0.06-11.23,0.08-16.85
	c0.89-6.88-2.21-14.14,2.02-20.69c0.02-3.52,0.04-7.03,0.06-10.55c0.87-5.49-2.09-11.44,2.02-16.54c0.02-2.12,0.04-4.24,0.06-6.37
	c0.74-4.78-1.87-10.02,2-14.36c0.03-1.47,0.06-2.94,0.09-4.42c0.45-3.5-1.44-7.46,2.04-10.36c0,0,0,0,0,0
	c0.02-1.42,0.04-2.84,0.06-4.26c0.44-3.5-1.45-7.46,2.03-10.36c0,0,0,0,0,0c0.02-1.42,0.04-2.83,0.06-4.25
	c0.42-3.47-1.46-7.39,2.01-10.26c0.68-2.67,1.65-5.3,1.99-8.02c4.43-34.88,12.44-69.07,20.32-103.25
	c14.73-63.96,34.16-126.58,54.87-188.81c0,0,0,0,0,0C432.13,91.37,432.15,91.32,432.17,91.26z"/>
<path class="st2" d="M478.84,748c13.66,13.78,26.69,28.21,42.79,39.36c8.13,5.63,10.52,5.38,14.57-4.03
	c11.78-27.38,24.35-54.42,35.82-81.93c4.4-10.56,9.28-20.91,13.89-31.37c1.29-2.92,1.56-7.06,6.09-7.52
	c1.37-5.13-3.34-5.49-5.94-7.03c-18.48-10.96-37.26-21.43-55.57-32.65c-6.45-3.96-8.69-2.9-11.65,3.95
	c-16.21,37.51-32.98,74.78-49.56,112.13C474.21,740.1,475.75,744.88,478.84,748z"/>
<path class="st2" d="M519.72,788.88c11.38,8.33,13.68,7.9,19.41-5.24c17.6-40.38,35.24-80.75,52.87-121.13
	c-4.52,0.46-4.8,4.61-6.09,7.52c-4.61,10.46-9.49,20.81-13.89,31.37c-11.47,27.51-24.04,54.55-35.82,81.93
	c-4.05,9.4-6.44,9.66-14.57,4.03c-16.1-11.15-29.13-25.58-42.79-39.36c-3.1-3.13-4.63-7.91-9.57-9.1l0,0
	C483.15,758.52,500.38,774.72,519.72,788.88z"/>
<path class="st2" d="M357.23,984.3c0.35-0.35,0.73-0.67,1.09-1c1.03-1.57,2.33-2.8,4.03-3.52c0.66-0.6,1.31-1.22,1.91-1.89
	c3.63-3.35,6.87-7.13,10.8-10.17c0.77-0.46,1.52-0.94,2.25-1.45c1.07-1.46,2.36-2.63,4.04-3.28c0.64-0.6,1.25-1.23,1.84-1.89
	c3.59-3.37,6.83-7.13,10.75-10.15c0.76-0.45,1.49-0.94,2.21-1.45c1-1.33,2.19-2.4,3.7-3.06c0.82-0.77,1.62-1.57,2.37-2.41
	c8.68-9.62,19.31-17.09,28.6-26.03c1-0.63,1.98-1.29,2.94-1.97c1.02-1.33,2.24-2.4,3.79-3.03c0.59-0.55,1.17-1.11,1.72-1.72
	c2.68-2.67,5.5-5.19,7.84-8.13c2-3.2-0.48-4.24-2.66-5.43c-1.22-0.62-2.28-1.44-3.26-2.35c-1.63,1.43-3.73,0.81-5.74-0.26
	c-17.41-9.29-34.29-19.51-51.24-29.62c-1.84-1.1-2.62-3.17-3.31-5.16c-2.93,2.92-5.73,5.98-8.81,8.73
	c-26.86,23.98-53.79,47.89-80.61,71.91c-2.31,2.07-7.93,4.1-1.1,7.94c22.28,12.54,44.47,25.25,66.69,37.89c0,0,0,0,0,0h0
	C356.54,985.92,356.63,985.1,357.23,984.3z"/>
<path class="st2" d="M444.44,897.72c2.18,1.19,4.66,2.23,2.66,5.43c-2.34,2.95-5.16,5.46-7.84,8.13c-0.55,0.61-1.13,1.17-1.72,1.72
	c0.86-0.35,1.82-0.56,2.9-0.6c0,0,0,0,0,0c0,0,0,0,0,0c3.53-2.04,6.34-4.79,8.31-8.38c-0.71-2.76-1.43-5.53-2.14-8.29c0,0,0,0,0,0
	c-1.71-0.04-3.26-0.41-4.16-2.08c0,0,0,0,0,0c-0.38,0.77-0.81,1.32-1.27,1.72C442.16,896.28,443.21,897.1,444.44,897.72z"/>
<path class="st2" d="M393.93,950.94c-3.92,3.02-7.15,6.78-10.75,10.15c-0.59,0.66-1.21,1.29-1.84,1.89
	c0.84-0.33,1.78-0.53,2.84-0.57c0,0,0,0,0,0c0,0,0,0,0,0c4.24-2.68,7.69-6.14,10.37-10.37c0.48-0.91,1-1.76,1.58-2.54
	C395.42,950.01,394.69,950.49,393.93,950.94z"/>
<path class="st2" d="M430.81,918c-9.29,8.94-19.91,16.41-28.6,26.03c-0.76,0.85-1.55,1.64-2.37,2.41c0.91-0.4,1.93-0.65,3.1-0.7
	c0,0,0,0,0,0c0,0,0,0,0,0c9.27-9.48,21.25-16.05,29.13-27.04c0.51-0.96,1.07-1.86,1.69-2.67C432.79,916.71,431.81,917.37,430.81,918
	z"/>
<path class="st2" d="M463.23,676.41c-1.41,1.09-2.58,2.45-3.89,3.66c-0.22,0.24-0.45,0.46-0.69,0.68c0.33-0.14,0.69-0.23,1.11-0.25
	c0,0,0,0,0,0c0,0,0,0,0,0c1.53-0.96,2.77-2.21,3.73-3.73c0.17-0.31,0.34-0.61,0.54-0.88C463.78,676.07,463.51,676.24,463.23,676.41z
	"/>
<path class="st2" d="M457.21,682.02c-0.13,0.12-0.27,0.24-0.39,0.36c-0.21,0.29-0.25,0.58-0.07,0.9h0c0-0.15,0.01-0.29,0.01-0.44
	C456.89,682.54,457.04,682.27,457.21,682.02z"/>
<path class="st2" d="M384.2,865.49c16.95,10.1,33.83,20.32,51.24,29.62c2.01,1.08,4.11,1.69,5.74,0.26
	c-0.33-0.31-0.67-0.61-0.97-0.95c-0.8,0.17-1.63,0.14-2.57-0.41c-18.9-11.26-37.84-22.45-56.76-33.67
	C381.57,862.32,382.35,864.39,384.2,865.49z"/>
<path class="st2" d="M441.18,895.37c0.46-0.4,0.89-0.95,1.27-1.72c-0.76,0.27-1.48,0.61-2.24,0.77
	C440.51,894.76,440.85,895.06,441.18,895.37z"/>
<path class="st3" d="M435.26,85.17c0.35,0,0.69,0.01,1.04,0.01c2.81-5.19,3.97-10.82,4.51-16.63c-2.64,5.18-3.18,11.07-5.48,16.37
	C435.3,85.01,435.28,85.09,435.26,85.17z"/>
<path class="st3" d="M434.19,85.17c0.35,0,0.71,0.01,1.06,0.01c0.02-0.08,0.04-0.17,0.06-0.25c2.31-5.3,2.84-11.19,5.48-16.37
	c0,0,0,0,0,0C436.58,73.29,435.89,79.43,434.19,85.17z"/>
<path class="st4" d="M435.08,85.86c-0.51,2-1.2,3.91-2.79,5.38c1.5-0.33,2.43,0.1,1.94,2.42c2.12-2.48,2.23-5.45,2.07-8.48
	C435.89,85.75,435.48,85.95,435.08,85.86z"/>
<path class="st4" d="M432.29,91.24c-0.07,0.06-0.11,0.13-0.17,0.19c0,0,0,0,0,0c0.7,0.74,1.41,1.49,2.11,2.23c0,0,0,0,0,0
	C434.72,91.34,433.79,90.91,432.29,91.24z"/>
<path class="st4" d="M435.08,85.86c-0.3-0.07-0.59-0.27-0.89-0.69c-0.67,2.03-1.35,4.06-2.02,6.1c0.04-0.01,0.08-0.01,0.12-0.02
	C433.88,89.77,434.57,87.86,435.08,85.86z"/>
<path class="st4" d="M432.29,91.24c-0.04,0.01-0.08,0.01-0.12,0.02c-0.02,0.06-0.04,0.11-0.06,0.17c0,0,0,0,0,0c0,0,0,0,0,0
	C432.18,91.37,432.22,91.3,432.29,91.24z"/>
<path class="st4" d="M435.08,85.86c0.4,0.09,0.8-0.11,1.21-0.68c-0.35,0-0.69-0.01-1.04-0.01C435.2,85.4,435.14,85.63,435.08,85.86z
	"/>
<path class="st4" d="M435.08,85.86c0.06-0.23,0.12-0.45,0.17-0.69c-0.35,0-0.71-0.01-1.06-0.01
	C434.49,85.59,434.78,85.79,435.08,85.86z"/>
<path class="st5" d="M342.41,587.22c0-22.15,0-44.29,0-66.44c0,0,0,0,0,0c0,0,0,0,0,0C340.7,542.93,340.71,565.07,342.41,587.22z"/>
<path class="st5" d="M340.43,530.38c-0.13,15.06-0.18,30.12,0.03,45.18c0.05,3.91-1.62,8.28,1.95,11.66
	c-1.7-22.15-1.71-44.29,0-66.44c0,0,0,0,0,0C339.2,523.44,340.46,527.12,340.43,530.38z"/>
<path class="st6" d="M342.5,503.93c4.11-6.56,1.21-13.81,2.02-20.69c0,0,0,0,0,0c0,0,0,0,0,0
	C341.64,489.92,345.25,497.23,342.5,503.93z"/>
<path class="st6" d="M342.5,503.93c2.75-6.69-0.86-14.01,2.02-20.69c0,0,0,0,0,0C340.29,489.79,343.39,497.05,342.5,503.93z"/>
<path class="st7" d="M344.57,472.69c4.09-5.1,1.17-11.05,2.02-16.54c0,0,0,0,0,0c0,0,0,0,0,0
	C343.81,461.4,347.25,467.42,344.57,472.69z"/>
<path class="st7" d="M344.57,472.69c2.68-5.27-0.76-11.28,2.02-16.54c0,0,0,0,0,0C342.49,461.24,345.44,467.2,344.57,472.69z"/>
<path class="st8" d="M344.51,620.61c-0.82-5.5,2.05-11.46-2.03-16.56c0,0,0,0,0,0C345.18,609.32,341.72,615.35,344.51,620.61z"/>
<path class="st8" d="M344.51,620.61c-2.8-5.26,0.66-11.29-2.03-16.56c0,0,0,0,0,0l0,0C343.41,609.53,340.33,615.51,344.51,620.61z"
	/>
<path class="st5" d="M346.65,449.78c3.97-4.33,1.25-9.58,2-14.36c0,0,0,0,0,0c0,0,0,0,0,0
	C345.99,439.93,349.26,445.27,346.65,449.78z"/>
<path class="st5" d="M346.65,449.78c2.61-4.52-0.66-9.85,2-14.36c0,0,0,0,0,0C344.78,439.76,347.39,445,346.65,449.78z"/>
<path class="st9" d="M346.62,643.64c-0.75-4.83,1.89-10.13-2.03-14.51c0,0,0,0,0,0C347.19,633.7,343.85,639.1,346.62,643.64z"/>
<path class="st9" d="M346.62,643.64c-2.77-4.54,0.56-9.94-2.03-14.51c0,0,0,0,0,0c0,0,0,0,0,0
	C345.32,633.95,342.6,639.27,346.62,643.64z"/>
<path class="st10" d="M448.75,904.02c7.27-4.83-0.04-5.89-2.14-8.29c0,0,0,0,0,0C447.86,898.35,451.32,900.41,448.75,904.02z"/>
<path class="st10" d="M446.61,895.73c0.71,2.76,1.43,5.53,2.14,8.29C451.32,900.41,447.86,898.35,446.61,895.73z"/>
<path class="st11" d="M440.44,912.4c-2.98,1.86-5.51,4.3-8.38,6.3C436.27,918.48,438.57,915.72,440.44,912.4z"/>
<path class="st11" d="M437.54,913c-1.55,0.62-2.77,1.7-3.79,3.03C435.07,915.1,436.35,914.11,437.54,913z"/>
<path class="st11" d="M437.54,913c-1.19,1.1-2.47,2.09-3.79,3.03c-0.62,0.81-1.18,1.7-1.69,2.67c2.87-2,5.4-4.44,8.38-6.3
	c0,0,0,0,0,0C439.36,912.44,438.4,912.66,437.54,913z"/>
<path class="st12" d="M402.93,945.74c-2.98,1.86-5.51,4.3-8.38,6.3C398.76,951.81,401.06,949.07,402.93,945.74z"/>
<path class="st12" d="M396.14,949.5c1.31-0.93,2.53-1.96,3.7-3.06C398.33,947.1,397.14,948.17,396.14,949.5z"/>
<path class="st12" d="M399.83,946.44c-1.17,1.1-2.39,2.13-3.7,3.06c-0.58,0.78-1.1,1.63-1.58,2.54c2.87-2,5.4-4.44,8.38-6.3
	c0,0,0,0,0,0C401.76,945.79,400.75,946.05,399.83,946.44z"/>
<path class="st13" d="M466.52,674.5c-1.07,0.67-1.98,1.55-3.02,2.27C465.01,676.68,465.84,675.69,466.52,674.5z"/>
<path class="st13" d="M464.04,675.89c0.51-0.36,1-0.75,1.45-1.18C464.89,674.94,464.43,675.36,464.04,675.89z"/>
<path class="st13" d="M465.49,674.7c-0.45,0.43-0.94,0.82-1.45,1.18c-0.2,0.27-0.38,0.56-0.54,0.88c1.03-0.72,1.94-1.6,3.02-2.27
	c0,0,0,0,0,0C466.14,674.51,465.8,674.58,465.49,674.7z"/>
<path class="st14" d="M459.77,680.5c-1.07,0.7-2.03,1.52-3.01,2.34C458.21,682.63,459.11,681.73,459.77,680.5z"/>
<path class="st14" d="M457.21,682.02c0.48-0.43,0.98-0.84,1.45-1.27C458.05,681.01,457.58,681.45,457.21,682.02z"/>
<path class="st14" d="M458.66,680.75c-0.47,0.43-0.97,0.84-1.45,1.27c-0.17,0.25-0.32,0.53-0.45,0.82c0.97-0.82,1.94-1.64,3.01-2.34
	c0,0,0,0,0,0C459.35,680.52,458.99,680.61,458.66,680.75z"/>
<path class="st15" d="M352.93,401.77c3.45-2.88,1.56-6.8,2.01-10.26l0,0c0,0,0,0,0,0C352.43,394.57,355.29,398.68,352.93,401.77z"/>
<path class="st15" d="M352.93,401.77c2.37-3.09-0.5-7.2,2.01-10.26c0,0,0,0,0,0C351.46,394.38,353.35,398.3,352.93,401.77z"/>
<path class="st16" d="M350.84,416.38c3.47-2.91,1.55-6.87,2.04-10.36c0,0,0,0,0,0C350.33,409.11,353.22,413.27,350.84,416.38z"/>
<path class="st16" d="M350.84,416.38c2.38-3.12-0.5-7.27,2.03-10.36C349.38,408.93,351.27,412.88,350.84,416.38z"/>
<path class="st17" d="M348.74,431c3.48-2.9,1.56-6.87,2.04-10.36c0,0,0,0,0,0C348.25,423.73,351.14,427.89,348.74,431z"/>
<path class="st17" d="M348.74,431c2.4-3.12-0.49-7.27,2.04-10.36C347.3,423.55,349.19,427.5,348.74,431z"/>
<path class="st17" d="M348.69,660.25c-0.48-3.51,1.44-7.49-2.05-10.41C349.06,652.97,346.17,657.15,348.69,660.25z"/>
<path class="st17" d="M348.69,660.25C348.69,660.25,348.69,660.25,348.69,660.25c-2.52-3.11,0.37-7.28-2.05-10.41c0,0,0,0,0,0
	C347.11,653.36,345.21,657.34,348.69,660.25z"/>
<path class="st18" d="M350.77,674.8c-0.45-3.47,1.42-7.39-2.02-10.27c0,0,0,0,0,0C351.14,667.62,348.25,671.75,350.77,674.8z"/>
<path class="st18" d="M350.77,674.8c-2.52-3.06,0.36-7.18-2.02-10.27c0,0,0,0,0,0c0,0,0,0,0,0
	C349.19,668,347.29,671.94,350.77,674.8z"/>
<path class="st18" d="M352.85,687.28c-0.44-3.46,1.44-7.38-2.02-10.25c0,0,0,0,0,0C353.22,680.11,350.34,684.23,352.85,687.28z"/>
<path class="st18" d="M352.85,687.28c-2.51-3.05,0.37-7.17-2.02-10.25c0,0,0,0,0,0c0,0,0,0,0,0
	C351.26,680.5,349.38,684.41,352.85,687.28z"/>
</svg>
