<?xml version="1.0" encoding="utf-8"?>
<!-- Generator: Adobe Illustrator 23.0.1, SVG Export Plug-In . SVG Version: 6.00 Build 0)  -->
<svg version="1.0" id="Layer_1" xmlns="http://www.w3.org/2000/svg" xmlns:xlink="http://www.w3.org/1999/xlink" x="0px" y="0px"
	 viewBox="0 0 1024 1024" enable-background="new 0 0 1024 1024" xml:space="preserve">
<g>
	<path fill="none" d="M980.68,533.24c0.21-0.11,0.43-0.22,0.64-0.31c-0.21,0.02-0.43,0.03-0.64,0.06
		C980.68,533.07,980.68,533.15,980.68,533.24z"/>
	<path fill="none" d="M1004.5,490.25c-0.31-0.07-0.64-0.09-0.96-0.14c-0.58,0.17-1.17,0.31-1.76,0.41
		C1002.71,490.5,1003.62,490.43,1004.5,490.25z"/>
	<path fill="none" d="M490.76,978.63c0.1,0.27,0.17,0.55,0.26,0.83c0-0.28,0-0.55,0-0.83C490.94,978.63,490.85,978.63,490.76,978.63
		z"/>
	<path fill="none" d="M535.26,43.32c-0.09-0.26-0.16-0.53-0.24-0.79c0,0.26,0,0.53,0,0.79C535.1,43.32,535.18,43.32,535.26,43.32z"
		/>
	<path fill="none" d="M45.36,488.76c-0.26,0.08-0.51,0.14-0.77,0.22c0.26,0,0.51,0,0.77,0C45.36,488.91,45.36,488.84,45.36,488.76z"
		/>
	<path fill="none" d="M534,18.58c-0.03,1.19-0.04,2.28-0.05,3.38c0.03-0.11,0.08-0.23,0.11-0.34
		C534.06,20.62,534.05,19.62,534,18.58z"/>
	<path fill="none" d="M492.09,1002.88c0.01-1.07,0.01-2.07,0.02-3.08c-0.03,0.11-0.07,0.22-0.1,0.33
		C492.02,1001.04,492.04,1001.95,492.09,1002.88z"/>
	<path fill="none" d="M19.56,490.09c0.92,0,1.81,0,2.7,0c-0.11-0.03-0.21-0.07-0.32-0.1C21.16,490.01,20.37,490.03,19.56,490.09z"/>
	<path fill="none" d="M20.74,531.53c0.62,0.14,1.25,0.2,1.88,0.28c0.58-0.16,1.15-0.3,1.74-0.4
		C23.13,531.37,21.93,531.39,20.74,531.53z"/>
	<path d="M1008.49,531.05c-0.44,0.19-0.88,0.35-1.33,0.51C1007.61,531.44,1008.05,531.27,1008.49,531.05z"/>
	<path d="M3.17,110.4C3.08,237.18,3.14,363.97,3.14,490.76c0,140.05,0.06,280.1-0.05,420.15c-0.03,33.37,11.55,61.49,36.63,83.69
		c17.7,15.67,38.64,25.64,62.11,25.74c133.74,0.54,267.49,0.2,401.23,0.15c1.88-5.14,5.75-1.39,8.31-1.38
		c11,0.04,19.03-4,23.52-14.29c-3.88-4.5-1.14-9.89-1.96-14.8c-0.61-3.66,1.54-7.83-1.99-10.97c-11.95-0.08-23.9-0.16-35.85-0.24
		c-4.09,6.61-1.14,13.97-2.98,20.99c0,1.01,0,2.01-0.02,3.08c-0.06-0.93-0.07-1.85-0.09-2.75c-0.25,0.87-0.56,1.74-0.99,2.6
		c0-7.76,0-15.51,0-23.27c-0.09-0.27-0.16-0.55-0.26-0.83c-125.6-0.03-251.2-0.03-376.81-0.12c-33.08-0.02-57.77-17.66-65.94-46.83
		c-2.25-8.04-2.58-16.31-2.58-24.63c0.01-124.69-0.04-249.39-0.07-374.08c-8.56,0-17.13,0-25.69,0c0.97-0.51,1.95-0.89,2.95-1.17
		c-0.63-0.08-1.27-0.15-1.88-0.28c1.18-0.14,2.39-0.16,3.62-0.11c6.93-1.19,14.33,1.48,20.83-2.51c0,0,0,0,0,0
		c0-11.95,0-23.9,0-35.86c-7.26-4.15-15.32-0.98-22.92-2.96c-0.9,0-1.78,0.01-2.7,0c0.8-0.06,1.59-0.08,2.38-0.1
		c-0.92-0.26-1.83-0.57-2.73-1.01c8.46,0,16.92,0,25.38,0c0.26-0.08,0.51-0.13,0.77-0.22c0.03-125.62,0.03-251.24,0.12-376.85
		c0.02-33.12,17.61-57.76,46.82-65.94c8.04-2.25,16.31-2.57,24.63-2.57c124.7,0.01,249.39-0.04,374.09-0.07c0-8.11,0-16.22,0-24.33
		c0.74,0,1.48-0.01,2.22-0.01c0,7.86,0,15.72,0,23.58c0,0,0,0,0,0c12.57,0.11,25.14,0.22,37.7,0.33v0c4.17-6.57,1.09-13.95,3-20.94
		c0.01-1.1,0.02-2.2,0.05-3.38c0.05,1.03,0.06,2.04,0.06,3.04c0.25-0.82,0.55-1.64,0.96-2.45c0,7.79,0,15.58,0,23.37
		c0.08,0.26,0.15,0.53,0.24,0.79c125.61,0.03,251.22,0.03,376.83,0.12C945.2,43.47,969.8,61.05,978,90.27
		c2.26,8.04,2.6,16.31,2.6,24.63c0,124.69,0.04,249.39,0.08,374.08c8.57,0,17.13,0,25.7,0c-0.93,0.5-1.88,0.85-2.85,1.13
		c0.32,0.05,0.65,0.07,0.96,0.14c-0.88,0.18-1.79,0.25-2.72,0.27c-6.96,1.23-14.39-1.48-20.92,2.53c0,0,0,0,0,0
		c0,11.95,0,23.9,0,35.86c0,0,0,0,0,0c8.94,4.21,18.48,0.78,27.64,2.15c8.56-0.86,8.6-10.43,14.41-14.1c0-138.76,0-277.51,0-416.27
		c-2.7-3.03-2.39-6.59-1.79-10.2C1016,47.06,976.58,7.67,933.4,2.85c-1.56-0.17-3.37,0.32-4.11-1.75c-278.18,0-556.36,0-834.54,0
		c-6.18,1.81-12.42,3.43-18.52,5.46C31.21,21.62,3.2,61.23,3.17,110.4z"/>
	<path d="M1008.49,531.05c-0.44,0.22-0.88,0.38-1.33,0.51c-8.44,3.01-17.26,0.51-25.84,1.36c-0.21,0.1-0.43,0.2-0.64,0.31
		c-0.03,125.6-0.03,251.2-0.12,376.8c-0.02,33.11-17.61,57.7-46.84,65.92c-8.05,2.26-16.3,2.61-24.62,2.61
		c-124.69-0.01-249.38,0.04-374.07,0.07c-0.04,8.73-0.08,17.46-0.12,26.18c0,0,0,0,0,0c-4.49,10.28-12.53,14.33-23.52,14.29
		c-2.56-0.01-6.44-3.75-8.31,1.38c138.86,0.1,277.72,0.57,416.58,0.1c50.89-0.17,95.75-40.68,101.48-89.11
		c-0.6-3.61-0.91-7.17,1.79-10.2c0-134.77,0-269.55,0-404.32C1017.1,520.63,1017.05,530.19,1008.49,531.05z"/>
	<path fill="#FEFEFE" d="M1022.91,931.24l-0.92-0.06l-0.87,0.3c-5.73,48.44-50.59,88.94-101.48,89.11
		c-138.86,0.47-277.72,0-416.58-0.1c-133.74,0.04-267.49,0.39-401.23-0.15c-23.47-0.09-44.41-10.07-62.11-25.74
		c-25.07-22.2-36.65-50.32-36.63-83.69c0.11-140.05,0.05-280.1,0.05-420.15c0-126.79-0.06-253.57,0.03-380.36
		C3.2,61.23,31.21,21.62,76.24,6.56c6.1-2.04,12.34-3.65,18.52-5.46c-28.22,0-56.44,0.31-84.65-0.21c-7.49-0.14-9.16,1.7-9.15,9.17
		c0.22,334.61,0.22,669.22,0,1003.83c0,7.47,1.68,9.15,9.15,9.15c334.61-0.22,669.22-0.19,1003.83-0.19c1.33,0,2.7-0.21,3.98,0.04
		c4.29,0.85,5.15-0.74,5.11-5.02C1022.79,989,1022.91,960.12,1022.91,931.24z"/>
	<path fill="#FEFEFE" d="M933.4,2.85c43.17,4.82,82.59,44.21,87.71,87.63c0.57,0.31,1.16,0.39,1.79,0.24
		c0-27.88-0.14-55.77,0.13-83.65c0.05-4.99-1.12-6.16-6.11-6.11c-29.21,0.27-58.42,0.13-87.64,0.13
		C930.03,3.17,931.84,2.67,933.4,2.85z"/>
	<path fill="#565656" d="M1021.11,90.48c-0.6,3.61-0.91,7.17,1.79,10.2c0-3.32,0-6.64,0-9.96
		C1022.28,90.87,1021.68,90.79,1021.11,90.48z"/>
	<path fill="#565656" d="M1021.11,931.48l0.87-0.3l0.92,0.06c0-3.32,0-6.64,0-9.96C1020.21,924.31,1020.51,927.87,1021.11,931.48z"
		/>
	<path fill="#FEFEFE" d="M237.28,308.49c-0.3,2.28-0.21,4.79,0.02,7.4C237.31,313.42,237.3,310.96,237.28,308.49z"/>
	<path fill="#383838" d="M532.94,530.9c-0.01-0.01-0.22-0.22-0.22-0.22c0,0-0.01,0-0.01,0C532.79,530.75,532.87,530.83,532.94,530.9
		z"/>
	<path fill="#383838" d="M535.02,978.64c-0.08-48.1-0.22-96.19-0.24-144.29c-0.04-97.52,0.04-195.04-0.12-292.57
		c-0.01-6.17,0.39-9.26,8.18-9.25c144.29,0.27,288.59,0.2,432.88,0.21c1.66,0,3.31,0.15,4.97,0.24c0.21-0.03,0.43-0.04,0.64-0.06
		c8.59-0.85,17.4,1.65,25.84-1.36c0.44-0.16,0.89-0.32,1.33-0.51c-9.16-1.37-18.7,2.07-27.64-2.15c-0.51,0-1.02,0-1.52,0.01
		c0,0,0,0,0,0c0,0,0,0,0,0c-2.7,2.86-6.22,1.76-9.4,1.76c-144.84,0.04-289.68,0.02-434.52,0c0,0,0-0.01,0-0.01c0,0,0,0.01,0,0.01
		c-0.82,0.07-1.64,0.15-2.46,0.22l0,0c-0.07,0.82-0.14,1.63-0.22,2.45c0.02,144.78,0.04,289.57-0.01,434.35
		c0,3.15,1.25,6.7-1.78,9.33c0,0.67,0,1.34,0,2.01c3.53,3.14,1.37,7.3,1.99,10.97c0.82,4.91-1.92,10.29,1.96,14.8c0,0,0,0,0,0
		C534.94,996.09,534.98,987.36,535.02,978.64z"/>
	<path fill="#383838" d="M532.72,491.28c0,0,0,0.01,0,0.01c0.08-0.08,0.15-0.16,0.23-0.24
		C532.95,491.05,532.72,491.28,532.72,491.28L532.72,491.28z"/>
	<path fill="#383838" d="M530.95,44.92c3.03,2.64,1.78,6.19,1.78,9.33c0.05,144.78,0.02,289.57,0.01,434.35c0,0-0.01,0-0.01,0
		c0,0,0.01,0,0.01,0c0.07,0.81,0.14,1.63,0.22,2.44c0.82,0.08,1.64,0.15,2.47,0.22c144.84-0.01,289.68-0.04,434.52,0
		c3.18,0,6.7-1.1,9.4,1.76c0.51,0,1.02,0.01,1.52,0.01c6.53-4.01,13.97-1.3,20.92-2.53c0.59-0.1,1.18-0.25,1.76-0.41
		c0.96-0.28,1.91-0.64,2.85-1.13c-8.57,0-17.13,0-25.7,0c-1.66,0.08-3.31,0.24-4.97,0.24c-144.29,0.01-288.59-0.06-432.88,0.21
		c-7.79,0.01-8.18-3.08-8.17-9.25c0.16-94.87,0.08-189.74,0.12-284.61c0.02-50.75,0.16-101.5,0.24-152.25c0-0.26,0-0.53,0-0.79
		c0-7.79,0-15.58,0-23.37c-0.41,0.81-0.71,1.63-0.96,2.45c-0.03,0.11-0.08,0.23-0.11,0.34c-1.92,6.98,1.17,14.36-3,20.94v0l0,0
		C530.95,43.58,530.95,44.25,530.95,44.92z"/>
	<path fill="#383838" d="M495.08,977.3C495.09,977.3,495.09,977.3,495.08,977.3C495.09,977.3,495.09,977.3,495.08,977.3
		c-2.87-2.69-1.78-6.22-1.78-9.39c-0.04-144.85-0.01-289.7,0-434.55c0,0,0.01,0,0.01,0c0,0-0.01,0-0.01,0
		c-0.07-0.81-0.14-1.63-0.22-2.45c0.08-0.08,0.16-0.15,0.24-0.23c0,0-0.01,0-0.01,0c0,0-0.23,0.23-0.23,0.23
		c-0.82-0.07-1.64-0.15-2.47-0.22c-144.84,0.01-289.68,0.04-434.52,0c-3.18,0-6.7,1.1-9.4-1.76c-0.51,0-1.02-0.01-1.52-0.01
		c-6.5,3.99-13.9,1.32-20.83,2.51c-0.58,0.1-1.16,0.24-1.74,0.4c-1,0.28-1.98,0.65-2.95,1.17c8.56,0,17.13,0,25.69,0
		c1.66-0.08,3.31-0.24,4.97-0.24c144.29-0.01,288.59,0.06,432.88-0.21c7.79-0.01,8.19,3.08,8.18,9.25
		c-0.16,96.2-0.08,192.39-0.12,288.59c-0.02,49.42-0.16,98.84-0.24,148.27c0,0.28,0,0.55,0,0.83c0,7.76,0,15.51,0,23.27
		c0.43-0.86,0.74-1.73,0.99-2.6c0.03-0.11,0.07-0.22,0.1-0.33c1.84-7.01-1.11-14.38,2.98-20.99
		C495.09,978.31,495.09,977.8,495.08,977.3z"/>
	<path fill="#383838" d="M46.71,493.04C46.71,493.04,46.71,493.04,46.71,493.04C46.71,493.04,46.71,493.04,46.71,493.04
		c2.7-2.86,6.22-1.76,9.4-1.76c144.84-0.04,289.68-0.02,434.52,0c0,0,0,0.01,0,0.01c0,0,0-0.01,0-0.01
		c0.82-0.07,1.64-0.15,2.46-0.22l0,0c0.07-0.82,0.15-1.63,0.22-2.45c0.01-147.74,0.03-295.47,0.04-443.21
		c-0.04-0.94-0.08-1.89-0.11-2.83c0,0,0,0,0,0c0,0,0,0,0,0c0-7.86,0-15.72,0-23.58c-0.74,0-1.48,0.01-2.22,0.01
		c0,8.11,0,16.22,0,24.33c0.08,1.66,0.24,3.31,0.24,4.97c0.01,144.29-0.06,288.59,0.21,432.88c0.01,7.8-3.09,8.18-9.25,8.17
		c-94.87-0.16-189.74-0.08-284.6-0.12c-50.75-0.02-101.5-0.16-152.25-0.24c-0.26,0-0.51,0-0.77,0c-8.46,0-16.92,0-25.38,0
		c0.9,0.43,1.81,0.75,2.73,1.01c0.11,0.03,0.21,0.07,0.32,0.1c7.6,1.98,15.67-1.18,22.92,2.96
		C45.7,493.05,46.21,493.05,46.71,493.04z"/>
	<path fill="#383838" d="M493.32,491.28L493.32,491.28c0,0,0.01,0,0.01,0c-0.08-0.08-0.16-0.15-0.24-0.22
		C493.1,491.06,493.32,491.28,493.32,491.28z"/>
	<path fill="#383838" d="M493.36,45.4c12.53-0.16,25.06-0.32,37.59-0.47c0-0.67,0-1.35,0-2.02l0,0c-12.57-0.11-25.13-0.22-37.7-0.33
		c0,0,0,0,0,0C493.28,43.51,493.32,44.45,493.36,45.4z"/>
	<path fill="#383838" d="M46.71,528.92c0-11.96,0-23.91,0-35.87c0,0,0,0,0,0c-0.51,0-1.01,0.01-1.52,0.01c0,11.95,0,23.9,0,35.86
		c0,0,0,0,0,0C45.7,528.91,46.21,528.91,46.71,528.92z"/>
	<path fill="#383838" d="M979.33,493.04c0,11.96,0,23.91,0,35.87c0,0,0,0,0,0c0.51-0.01,1.02-0.01,1.52-0.01c0,0,0,0,0,0
		c0-11.95,0-23.9,0-35.86c0,0,0,0,0,0C980.35,493.05,979.84,493.05,979.33,493.04z"/>
	<path fill="#383838" d="M530.95,977.04c-11.95,0.08-23.91,0.17-35.86,0.26c0,0,0,0,0,0c0.01,0.5,0.01,1.01,0.01,1.51
		c11.95,0.08,23.9,0.16,35.85,0.24C530.95,978.38,530.95,977.71,530.95,977.04z"/>
	<path d="M850.31,256.07c-54.34-0.08-108.69-0.06-163.03-0.02c-16.17,0.01-25.36,7.86-25.28,21.37
		c0.08,13.54,8.96,20.88,25.59,20.93c26.51,0.07,53.02,0.02,79.53,0.01c28.17,0,56.33,0.17,84.5-0.07
		c14.32-0.12,22.82-8.95,22.26-22.17C873.35,263.77,864.56,256.09,850.31,256.07z"/>
	<path d="M238.51,297.72c13.05,0,26.09,0,39.14,0c0,0,0,0,0,0c0.06-33.02,0.1-66.04,0.2-99.06c0.01-3.61,0.32-7.23,0.49-10.84
		c-3.23-10.88-10.36-16.8-20.26-16.8c-9.9,0-17,5.87-20.26,16.79c0.12,32.02,0.22,64.04,0.36,96.06
		C238.19,288.48,238.39,293.1,238.51,297.72z"/>
	<path d="M247.09,298.88c2.5,0.01,5,0,7.51,0C251.95,298.66,249.4,298.58,247.09,298.88z"/>
	<path d="M235.98,297.53c0.06-13.85,0.12-27.7,0.18-41.55c-20.2,0.02-40.39-0.05-60.59,0.09c-14.44,0.1-23.44,8.36-23.46,21.16
		c-0.01,12.99,8.6,20.97,23.39,21.08c20.19,0.16,40.39-0.01,60.59-0.04L235.98,297.53C235.98,297.53,235.98,297.53,235.98,297.53z"
		/>
	<path d="M340.61,256.07c-20.2-0.14-40.41-0.07-60.61-0.09c0.06,13.85,0.12,27.7,0.18,41.55l0.19,0.46l-0.39,0.31
		c20.2,0.02,40.41,0.18,60.61,0.02c14.82-0.12,23.44-8.07,23.44-21.04C364.03,264.37,355.13,256.17,340.61,256.07z"/>
	<path fill="#010101" d="M277.97,308.16c0.09-6.53-1.93-8.91-8.47-8.4c-4.66,0.37-9.95-0.48-14.9-0.89c-2.5,0-5,0.01-7.51,0
		c-2.5,0.32-4.74,1.08-6.49,2.63c-2.01,1.77-2.95,4.2-3.32,6.99c0.02,2.47,0.03,4.93,0.02,7.4c0.42,4.73,1.29,9.74,1.13,14.14
		c-0.48,12.56-0.28,25.15-0.37,37.72c2.42,10.65,9.89,15.53,20.02,15.53c10.13,0,17.58-4.9,20.03-15.53
		C278.01,347.88,277.68,328.02,277.97,308.16z"/>
	<path fill="#393939" d="M280.18,297.53c-0.84,0.06-1.69,0.13-2.53,0.19c0,0,0,0,0,0c0,0,0,0,0,0c-13.04,0-26.09,0-39.14,0
		c-0.84-0.06-1.69-0.12-2.53-0.18c0,0,0,0,0,0c0,0,0,0,0,0l0.11,0.74c0.08,15.42-0.06,30.84,0.34,46.25
		c0.2,7.74-1.8,15.7,1.63,23.23c0.09-12.57-0.11-25.16,0.37-37.72c0.17-4.4-0.71-9.41-1.13-14.14c-0.23-2.61-0.32-5.12-0.02-7.4
		c0.37-2.78,1.31-5.21,3.32-6.99c1.75-1.55,3.99-2.31,6.49-2.63c2.31-0.3,4.86-0.22,7.51,0c4.96,0.41,10.24,1.26,14.9,0.89
		c6.54-0.52,8.56,1.87,8.47,8.4c-0.29,19.86,0.05,39.72,0.14,59.58c2.58-3.5,1.65-7.57,1.68-11.42c0.14-19.34,0.15-38.69,0.2-58.03
		l0.39-0.31L280.18,297.53z"/>
	<path fill="#383838" d="M277.65,297.72C277.65,297.72,277.65,297.72,277.65,297.72c0.85-0.06,1.69-0.12,2.53-0.19
		c-0.06-13.85-0.12-27.7-0.18-41.55c-0.06-10.92,0.2-21.85-0.27-32.76c-0.5-11.8,1.9-23.72-1.4-35.4
		c-0.17,3.61-0.48,7.23-0.49,10.84C277.75,231.68,277.71,264.7,277.65,297.72z"/>
	<path fill="#383838" d="M235.98,297.53C235.98,297.53,235.98,297.53,235.98,297.53c0.85,0.07,1.69,0.13,2.53,0.19
		c-0.12-4.62-0.32-9.24-0.34-13.85c-0.14-32.02-0.24-64.04-0.36-96.06c-2.4,3.26-1.4,7.03-1.43,10.57
		c-0.16,19.2-0.17,38.4-0.23,57.6C236.1,269.83,236.04,283.68,235.98,297.53z"/>
	<path d="M177.9,817.52c5.51,0.01,9.1-3.4,12.65-6.97c11.94-11.99,24.03-23.82,35.81-35.97c3.48-3.58,5.54-3.96,9.49-0.25
		c18.92,17.79,19.06,17.65,0.54,36.16c-8.44,8.44-16.84,16.94-25.36,25.31c-2.96,2.9-5.5,5.81-4.54,10.34
		c16.37-13.94,30.73-29.94,45.91-45.09c4.52-4.51,6.84-4.69,11.4-0.03c14.99,15.33,30.53,30.13,45.86,45.13
		c1.12-5.04-2.14-7.95-5.24-11.03c-12.46-12.39-24.72-24.98-37.37-37.17c-3.98-3.84-4.55-6.4-0.09-10.16
		c7.57-6.38,13.3-14.77,21.77-20.21c-0.58-4.15,3.14-5.52,5.26-7.77c14.52-15.4,30.6-29.29,44.29-45.5
		c-5.04-1.09-7.93,2.19-11.01,5.29c-12.14,12.22-24.43,24.29-36.49,36.59c-4.8,4.89-8.42,5.59-13.75,0.03
		c-17.06-17.79-17.56-14.7-0.3-31.88c8.69-8.65,17.32-17.35,26.01-25.99c3.57-3.55,6.96-7.15,6.93-12.65
		c-15.15,14.78-30.26,29.61-45.51,44.29c-2.21,2.13-3.58,5.9-7.78,5.16c-3.88,11.32-14.4,16.91-21.93,25.04
		c-3.42,3.69-5.85-0.99-7.96-3.06c-12.07-11.86-23.99-23.86-35.93-35.85c-3.56-3.57-7.16-6.97-12.66-6.98
		c13.9,16.36,29.88,30.7,45.02,45.84c4.59,4.59,4.52,6.93-0.04,11.48C207.73,786.77,191.83,801.18,177.9,817.52z"/>
	<path d="M226.5,757.15c2.11,2.07,4.54,6.76,7.96,3.06c7.53-8.13,18.05-13.72,21.93-25.04c-15.98-16.16-31.73-32.54-48.02-48.37
		c-8.34-8.1-19.4-7.77-27.69-0.43c-8.76,7.76-9.73,17.54-2.76,27.94c5.5,0,9.1,3.41,12.66,6.98
		C202.51,733.28,214.43,745.29,226.5,757.15z"/>
	<path d="M266.95,787.8c-4.46,3.76-3.89,6.32,0.09,10.16c12.65,12.19,24.91,24.79,37.37,37.17c3.1,3.08,6.36,5.99,5.24,11.03
		c10.49,6.91,20.35,5.91,27.99-2.85c7.25-8.31,7.55-19.49-0.48-27.74c-15.85-16.28-32.26-32.02-48.44-47.98
		C280.26,773.03,274.52,781.42,266.95,787.8z"/>
	<path d="M276.73,724.36c-17.27,17.18-16.77,14.09,0.3,31.88c5.33,5.56,8.96,4.86,13.75-0.03c12.06-12.3,24.34-24.38,36.49-36.59
		c3.08-3.09,5.97-6.38,11.01-5.29c6.7-10.19,6-19.59-2.03-27.29c-7.77-7.45-16.68-7.89-26.57-1.31c0.02,5.5-3.36,9.1-6.93,12.65
		C294.05,707.01,285.42,715.71,276.73,724.36z"/>
	<path d="M211.04,835.81c8.52-8.37,16.91-16.86,25.36-25.31c18.51-18.51,18.38-18.37-0.54-36.16c-3.95-3.71-6.01-3.34-9.49,0.25
		c-11.78,12.14-23.87,23.98-35.81,35.97c-3.56,3.57-7.15,6.98-12.65,6.97c-6.76,10.08-6.08,19.42,1.99,27.28
		c7.66,7.46,16.66,7.92,26.6,1.36C205.54,841.62,208.08,838.72,211.04,835.81z"/>
	<path d="M979.33,493.04c-2.7-2.86-6.22-1.76-9.4-1.76c-144.84-0.04-289.68-0.02-434.52,0c0,13.13,0,26.27,0,39.4c0,0,0,0.01,0,0.01
		c144.84,0.01,289.68,0.04,434.52,0c3.18,0,6.7,1.1,9.4-1.76c0,0,0,0,0,0C979.33,516.96,979.33,505,979.33,493.04z"/>
	<path fill="#020202" d="M493.32,533.35C493.32,533.35,493.31,533.35,493.32,533.35c-0.02,144.85-0.05,289.7-0.01,434.55
		c0,3.18-1.09,6.7,1.78,9.39c0,0,0,0,0,0c11.95-0.09,23.91-0.17,35.86-0.26c3.03-2.64,1.78-6.19,1.78-9.33
		c0.05-144.78,0.02-289.57,0.01-434.35C519.59,533.35,506.46,533.35,493.32,533.35z"/>
	<path fill="#383838" d="M532.94,530.9c-0.08-0.07-0.15-0.15-0.23-0.22c-13.13,0-26.25,0-39.38,0c-0.08,0.08-0.16,0.15-0.24,0.23
		c0.07,0.82,0.14,1.63,0.22,2.45c0,0,0.01,0,0.01,0c13.14,0,26.27,0,39.41,0C532.8,532.54,532.88,531.72,532.94,530.9L532.94,530.9
		L532.94,530.9C532.95,530.91,532.94,530.9,532.94,530.9z"/>
	<path fill="#383838" d="M535.42,491.28c-0.82-0.08-1.64-0.15-2.47-0.22c-0.08,0.08-0.15,0.16-0.23,0.24c0,13.13,0,26.26,0,39.39h0
		c0,0,0.21,0.21,0.22,0.22c0,0,0,0,0,0h0c0.82-0.07,1.64-0.15,2.46-0.22c0,0,0-0.01,0-0.01
		C535.41,517.54,535.41,504.41,535.42,491.28z"/>
	<path fill="#020202" d="M532.72,488.61C532.73,488.61,532.73,488.61,532.72,488.61c0.02-144.79,0.05-289.57,0-434.35
		c0-3.14,1.25-6.7-1.78-9.33c-12.53,0.16-25.06,0.31-37.59,0.47c-0.01,147.74-0.03,295.47-0.04,443.21
		C506.45,488.61,519.59,488.61,532.72,488.61z"/>
	<path fill="#383838" d="M493.1,491.06c0.08,0.08,0.16,0.15,0.24,0.22c13.13,0,26.26,0,39.39,0c0,0,0.23-0.23,0.23-0.23
		c-0.07-0.82-0.14-1.63-0.22-2.44c0,0-0.01,0-0.01,0c-13.14,0-26.27,0-39.41,0C493.24,489.42,493.17,490.24,493.1,491.06
		L493.1,491.06L493.1,491.06C493.09,491.05,493.1,491.06,493.1,491.06z"/>
	<path d="M490.63,491.28C490.63,491.28,490.63,491.28,490.63,491.28c-144.84-0.02-289.68-0.04-434.52-0.01c-3.18,0-6.7-1.1-9.4,1.76
		c0,0,0,0,0,0c0,11.96,0,23.91,0,35.87c2.7,2.86,6.22,1.76,9.4,1.76c144.84,0.04,289.68,0.02,434.52,0
		C490.63,517.55,490.63,504.42,490.63,491.28z"/>
	<path fill="#383838" d="M493.32,491.28c0,0-0.22-0.22-0.22-0.22c0,0,0,0,0,0h0c-0.82,0.07-1.64,0.15-2.46,0.22c0,0,0,0.01,0,0.01
		c0,13.13,0,26.27,0,39.4c0.82,0.07,1.64,0.15,2.47,0.22c0,0,0.23-0.23,0.23-0.23C493.32,517.55,493.32,504.41,493.32,491.28z"/>
	<path d="M848.44,680.76c-26.84,0.04-53.68,0.02-80.52,0.02c-27.5,0-55.01-0.2-82.51,0.08c-16.39,0.17-26.08,11.65-22.98,26.31
		c2.21,10.46,11.05,16.39,25.05,16.41c53.68,0.06,107.36,0.05,161.04-0.03c3.6-0.01,7.34-0.33,10.77-1.35
		c15.27-4.54,19.86-24.09,8.43-35.21C862.31,681.72,855.57,680.74,848.44,680.76z"/>
	<path d="M687.34,851.04c53.68,0.07,107.36,0.05,161.04-0.03c3.6-0.01,7.34-0.33,10.77-1.33c8.4-2.44,13.4-8.22,14.53-16.97
		c1.17-9.04-1.95-16.28-9.8-21.17c-4.99-3.11-10.62-3.33-16.3-3.32c-26.18,0.04-52.36,0.02-78.53,0.02
		c-27.83,0-55.67-0.19-83.5,0.07c-16.14,0.15-25.51,10.66-23.27,25.2C663.99,844.62,672.92,851.03,687.34,851.04z"/>
	<path d="M532.71,530.68C532.72,530.68,532.72,530.68,532.71,530.68L532.71,530.68c0.01-13.13,0.01-26.26,0.01-39.39
		c0,0,0-0.01,0-0.01l0,0c-13.13,0-26.26,0-39.39,0c0,0-0.01,0-0.01,0l0,0c0,13.13,0,26.27,0,39.4c0,0,0.01,0,0.01,0
		C506.46,530.68,519.59,530.68,532.71,530.68z"/>
</g>
</svg>
