<?xml version="1.0" encoding="utf-8"?>
<!-- Generator: Adobe Illustrator 23.0.1, SVG Export Plug-In . SVG Version: 6.00 Build 0)  -->
<svg version="1.1" id="Layer_1" xmlns="http://www.w3.org/2000/svg" xmlns:xlink="http://www.w3.org/1999/xlink" x="0px" y="0px"
	 viewBox="0 0 1024 1024" style="enable-background:new 0 0 1024 1024;" xml:space="preserve">
<style type="text/css">
	.st0{fill:#646464;}
	.st1{fill:#8F8F8F;}
	.st2{fill:#AAAAAA;}
	.st3{fill:#747474;}
	.st4{fill:#595959;}
	.st5{fill:#FEFEFE;}
</style>
<path d="M538.41,1022.31C538.41,1022.31,538.41,1022.31,538.41,1022.31c3.36,0,6.71-0.01,10.06-0.01c5.95-0.69,11.9-1.38,17.86-2.06
	c70.62-8.04,135.6-31.98,194.8-70.97c73.82-48.62,128.82-113.63,165.01-194.33c32.71-72.93,44.77-149.52,37.06-228.8
	c-7.44-76.44-33.21-146.75-76.47-210.4c-8.59-12.64-17.38-25.26-28.06-36.24c-7.28-7.49-17.31-7.45-25.22-1.11
	c-7.97,6.38-9.85,15.92-4.38,24.88c3.28,5.38,7.19,10.38,11,15.42c64.76,85.61,93.07,181.89,84.07,288.9
	c-6.79,80.68-35.23,153.39-85.17,216.77C763.34,920.32,663.53,973.6,541.9,983.36c-84.78,6.8-165.05-11.93-238.15-55.56
	c-107.84-64.36-174.09-159.04-198.13-282.46c-13.71-70.42-7.99-139.9,15.21-207.64c30.56-89.24,85.41-160.15,164.14-212.22
	c63.58-42.06,133.68-64.29,209.83-67.84c6-0.28,7.32,1.19,7.28,6.82c-0.23,28.31-0.02,56.63-0.16,84.94
	c-0.04,8.62,0.43,16.7,8.94,21.73c8.89,5.26,16.48,1.65,24.18-2.98c62.09-37.33,124.24-74.58,186.35-111.88
	c19.12-11.48,19.21-26.36,0.18-37.8C659.18,80.98,596.73,43.6,534.38,6.03c-7.55-4.55-14.84-7.57-23.26-2.61
	c-8,4.71-9.24,12.28-9.2,20.68c0.13,26.98-0.41,53.98,0.29,80.94c0.26,9.99-2,13.69-12.73,13.76c-25.34,0.16-50.37,4.13-75.08,9.78
	c-109.76,25.1-199.27,82.37-265.93,172.84C74.19,402.22,46.68,515.78,64.81,639.84c10.52,72,37.44,137.89,80.54,196.32
	c74.98,101.64,175.27,162.72,300.36,182.57c8.9,1.41,18.34,0.56,26.61,5.27c2.66,0,5.33,0,8,0c0.46-2.56,2.28-1.92,3.93-1.67
	c1.33,0,2.66,0,3.98,0c1.33,0,2.65-0.01,3.98-0.01c1.73-0.34,3.29-0.26,4.09,1.68c9.99,0,19.99,0,29.98,0
	C529.92,1020.53,534.28,1022.24,538.41,1022.31z M539.1,51.84c47.43,28.43,94.38,56.59,142.43,85.39
	c-48.23,28.93-94.87,56.91-142.43,85.44C539.1,165.63,539.1,109.63,539.1,51.84z"/>
<path class="st0" d="M538.41,1022.31c-4.13-0.07-8.48-1.78-12.11,1.69c4,0,8,0,11.99,0
	C538.27,1023.43,538.31,1022.87,538.41,1022.31z"/>
<path class="st1" d="M538.41,1022.31C538.41,1022.31,538.41,1022.31,538.41,1022.31c-0.09,0.56-0.13,1.13-0.12,1.69
	c3.33,0,6.66,0,9.99,0c-0.05-0.58,0.01-1.15,0.19-1.71C545.12,1022.3,541.76,1022.3,538.41,1022.31z"/>
<path class="st2" d="M484.26,1022.33c-1.66-0.25-3.47-0.89-3.93,1.67c1.33,0,2.66,0,4,0
	C484.31,1023.44,484.29,1022.89,484.26,1022.33z"/>
<path class="st1" d="M488.24,1022.33c-1.33,0-2.66,0-3.98,0c0.03,0.56,0.05,1.11,0.06,1.67c1.33,0,2.66,0,4,0
	C488.31,1023.44,488.28,1022.89,488.24,1022.33z"/>
<path class="st3" d="M492.22,1022.32c-1.33,0-2.65,0.01-3.98,0.01c0.04,0.56,0.06,1.11,0.08,1.67c1.33,0,2.67,0,4,0
	C492.3,1023.44,492.27,1022.88,492.22,1022.32z"/>
<path class="st4" d="M492.22,1022.32c0.05,0.56,0.08,1.12,0.09,1.68c1.33,0,2.67,0,4,0
	C495.51,1022.06,493.95,1021.98,492.22,1022.32z"/>
<path d="M512.45,915.85c-5.98-0.25-11.96-0.64-17.95-0.85c-87.72-3.14-161.43-37.05-221.66-100.73
	c-30.56-32.32-55.55-68.68-77.97-106.92c-3.72-6.34-8.45-11.27-15.93-6.55c-7.03,4.45-4.56,10.55-1.04,16.55
	c21.91,37.39,46.46,72.86,75.92,104.75c64.87,70.21,144.39,109.11,240.54,113.18c5.98,0,11.98,0.29,17.94-0.08
	c6.1-0.38,10.14-3.67,9.86-10.18C521.9,919.18,518.37,916.1,512.45,915.85z"/>
<path class="st5" d="M539.1,51.84c0,57.79,0,113.79,0,170.83c47.56-28.53,94.19-56.51,142.43-85.44
	C633.48,108.43,586.52,80.27,539.1,51.84z"/>
</svg>
